<?xml version="1.0" encoding="UTF-8"?>
<svg id="Layer_1" xmlns="http://www.w3.org/2000/svg" viewBox="0 0 90 90">
  <defs>
    <style>
      .cls-1 {
        fill: #b20c3b;
      }

      .cls-2 {
        fill: #dc8c22;
      }

      .cls-3 {
        fill: #f2efe9;
      }
    </style>
  </defs>
  <path class="cls-1" d="M0,0h90v90H0V0Z"/>
  <path class="cls-3" d="M56.8,68l-3.6-10.2h-16.8l-3.6,10.2h-9.8l17.5-45.8h8.9l17.4,45.8h-10ZM47.1,40.8c-.9-2.7-1.8-5.4-2.3-7.1-.5,1.7-1.4,4.4-2.3,7.1l-2.9,8.3h10.4l-2.9-8.3Z"/>
  <path class="cls-2" d="M21.1,46.4c-.2.6-.9,1-1.6.8l-12.7-4.3c-.6-.2-1-.9-.8-1.6l1.1-3.2c.2-.6.9-1,1.6-.8l12.8,4.3c.6.2,1,.9.8,1.6,0,0-1.2,3.2-1.2,3.2ZM20.4,56.4c.2.6-.1,1.3-.8,1.6l-9.1,3.2c-.6.2-1.3-.2-1.5-.8l-1-3.2c-.2-.6.1-1.3.8-1.6l9.1-3.2c.6-.2,1.3.1,1.6.8,0,0,.9,3.2.9,3.2ZM17.9,27.2c-.5.4-.6,1.2-.2,1.7l5.8,7.7c.4.5,1.2.6,1.7.2l2.6-2c.5-.4.6-1.2.2-1.7l-5.8-7.7c-.4-.5-1.2-.6-1.7-.2l-2.6,2ZM68.6,46.4c.2.6.9,1,1.6.8l12.8-4.3c.6-.2,1-.9.8-1.6l-1.1-3.2c-.2-.6-.9-1-1.6-.8l-12.8,4.3c-.6.2-1,.9-.8,1.6l1.1,3.2ZM69.3,56.4c-.2.6.1,1.3.8,1.6l9.1,3.2c.6.2,1.3-.1,1.6-.8l1.1-3.2c.2-.6-.1-1.3-.8-1.6l-9.1-3.2c-.6-.2-1.3.1-1.6.8,0,0-1.1,3.2-1.1,3.2ZM71.8,27.2c.5.4.6,1.2.2,1.7l-5.8,7.7c-.4.5-1.2.6-1.7.2l-2.6-2c-.5-.4-.6-1.2-.2-1.7l5.8-7.7c.4-.5,1.2-.6,1.7-.2,0,0,2.6,2,2.6,2Z"/>
</svg>