<svg width="311" height="503" viewBox="0 0 311 503" fill="none" xmlns="http://www.w3.org/2000/svg">
<mask id="mask0_365_40" style="mask-type:alpha" maskUnits="userSpaceOnUse" x="0" y="0" width="311" height="503">
<rect width="311" height="503" fill="#D9D9D9"/>
</mask>
<g mask="url(#mask0_365_40)">
<path d="M240.201 140.242L220.618 136.279L209.386 130.316L213.018 110.459L229.187 90.9538L229.239 68.6868L226.098 44.8886L241.958 12.2994L272.851 10.02L298.097 35.4102L290.059 73.3672L270.641 90.7362L256.626 113.699L240.201 140.242Z" fill="#ECEAE5"/>
<path d="M79.2657 169.955L95.3933 181.971L107.421 186.415L119.929 170.534L123.758 145.512L140.483 130.71L160.504 117.281L174.388 83.8151L155.368 59.2036L119.31 57.1588L96.1359 88.335L96.0961 114.37L88.2195 140.075L79.2657 169.955Z" fill="#ECEAE5"/>
<path d="M15.9883 362.544L34.9756 368.763L47.687 369.121L54.3296 350.058L49.8955 325.114L60.841 305.723L75.3191 286.576L77.612 250.405L51.8699 233.175L17.3806 242.795L5.63623 279.773L13.9505 304.463L14.805 331.352L15.9883 362.544Z" fill="#ECEAE5"/>
<path d="M181.273 323.5L161.297 323.125L149.176 319.279L149.177 299.093L161.572 276.997L157.618 255.084L150.248 232.239L159.986 197.329L189.965 189.529L219.367 209.963L218.288 248.747L202.311 269.326L192.656 294.436L181.273 323.5Z" fill="#ECEAE5"/>
<path d="M116.533 492.901L96.5842 491.786L84.6139 487.494L85.3621 467.321L98.5677 445.7L95.4276 423.656L88.908 400.554L99.9324 366.027L130.179 359.343L158.805 380.852L156.29 419.57L139.563 439.543L128.984 464.278L116.533 492.901Z" fill="#ECEAE5"/>
<g clip-path="url(#clip0_365_40)">
<g opacity="0.9">
<path d="M196.013 362.171C194.995 363.309 193.253 364.073 192.335 364.631C191.963 364.686 191.994 364.208 191.676 364.292C190.954 365.243 189.883 364.359 189.314 365.337C188.516 364.742 187.118 365.17 186.109 364.745C185.66 364.904 185.219 365.151 184.912 365.674C184.197 365.297 185.196 364.643 184.971 364.06C182.559 363.74 180.976 361.544 178.669 361.302C178.87 361.036 179.252 361.077 179.519 360.944C179.706 360.258 178.979 360.453 178.59 360.081C177.558 360.131 177.145 360.568 176.625 361.253C176.255 360.974 176.153 360.228 176.586 359.984L173.716 357.733C173.029 357.881 172.473 357.953 171.711 357.97C171.755 356.92 173.025 358.206 173.146 357.052C172.739 356.495 172.131 356.205 171.526 356.662C170.748 355.826 171.001 353.615 169.211 354.339C167.464 354.347 165.648 353.23 164.185 352.207C165.167 352.451 167.072 353.226 168.143 354.111L167.548 353.249C168.015 353.184 168.077 353.977 168.669 354.182C168.603 354.048 168.845 353.4 168.371 353.043C168.093 353.08 168.13 353.358 168.158 353.548C168.132 353.366 167.969 353.242 167.855 353.068C168.425 352.09 169.112 353.601 169.966 352.918L170.688 351.966C170.702 352.72 170.118 353.279 170.417 354.084C171.01 353.955 171.941 354.484 171.995 353.531C171.199 352.601 172.557 350.804 172.072 350.352C171.865 349.862 171.221 350.71 171.13 350.06C172.218 349.713 171.839 348.021 173.034 347.76C173.538 347.973 173.763 348.556 173.97 349.046L174.966 348.384C175.413 348.893 176.088 349.317 176.842 348.969C177.044 348.702 176.885 348.253 177.19 348.064C178.628 347.155 180.183 348.827 181.215 348.443C181.161 347.737 180.505 347.407 180.328 346.864C181.349 348.376 182.148 345.662 183.11 347.463C183.724 346.759 181.918 345.738 183.218 345.221C183.607 345.594 183.624 346.112 183.468 346.654C183.59 346.826 184.04 346.667 184.299 346.536C184.351 345.917 183.638 345.206 184.451 344.905C184.62 345.45 184.835 345.937 185.272 346.35C185.84 345.705 186.97 346.636 187.34 345.59C186.847 345.139 186.73 343.974 187.417 343.826C188.102 344.347 187.468 346.517 189.016 346.108C189.282 346.309 189.942 346.314 189.743 345.912C189.225 344.946 190.08 343.928 190.084 342.926C190.465 343.301 190.57 344.704 190.498 345.564C191.544 345.933 191.596 347.307 192.441 347.943C193.29 347.919 193.18 347.176 193.679 346.632C193.716 348.57 195.04 350.562 195.696 352.551L196.862 352.435C196.147 353.718 196.954 354.41 196.613 355.736C196.994 356.111 197.103 355.529 197.489 355.894C196.597 356.634 197.813 357.548 196.847 358.067L197.465 358.453C196.804 358.782 196.617 359.802 197.273 360.133C196.374 360.451 195.958 361.213 195.992 362.159L196.013 362.171Z" fill="#6D762C"/>
<path opacity="0.3" d="M195.203 354.003L195.279 354.233L195.117 354.11L195.203 354.003Z" fill="white"/>
<path opacity="0.3" d="M194.777 353.688L194.912 353.287L194.768 353.257L195.273 353.136C194.835 353.057 195.194 353.574 194.782 353.677L194.777 353.688Z" fill="white"/>
<path opacity="0.3" d="M192.176 353.062C192.321 352.757 192.358 353.035 192.336 353.177C192.258 353.281 192.098 353.166 192.176 353.062Z" fill="white"/>
<path opacity="0.3" d="M194.002 350.867C193.858 350.837 193.936 350.733 193.926 350.636C193.982 350.674 194.23 350.782 194.002 350.867Z" fill="white"/>
<path opacity="0.3" d="M193.446 350.939L193.838 351.077L193.761 351.181L193.446 350.939Z" fill="white"/>
<path opacity="0.3" d="M192.538 351.594C192.988 351.435 192.698 351.709 192.612 351.816L192.546 351.591L192.538 351.594Z" fill="white"/>
<path opacity="0.3" d="M192.935 350.395C192.249 350.208 192.885 349.363 192.408 348.998C192.567 349.448 193.204 349.928 193.504 349.416C192.653 349.774 193.796 350.133 192.935 350.395Z" fill="white"/>
<path opacity="0.3" d="M191.861 351.161C191.969 350.914 192.205 351.259 192.365 351.374C192.033 351.039 192.154 351.544 191.861 351.161Z" fill="white"/>
<path opacity="0.3" d="M192.344 350.533L192.371 350.714L192.093 350.751L192.344 350.533Z" fill="white"/>
<path opacity="0.3" d="M192.944 349.076L193.263 348.658C193.452 348.963 193.128 349.058 192.944 349.076Z" fill="white"/>
<path opacity="0.3" d="M192.096 350.425C191.629 350.156 191.543 350.172 191.643 349.926C192.076 350.665 192.067 349.251 192.292 349.835L192.236 349.797C191.968 349.93 192.245 350.227 192.09 350.435L192.096 350.425Z" fill="white"/>
<path opacity="0.3" d="M192.241 348.461L192.697 348.634L192.411 348.673L192.241 348.461Z" fill="white"/>
<path opacity="0.3" d="M191.363 349.62C191.332 350.099 191.049 349.379 190.828 349.886C191.03 349.285 191.137 349.371 191.623 349.49C191.545 349.594 191.411 349.661 191.355 349.623L191.363 349.62Z" fill="white"/>
<path opacity="0.3" d="M191.695 348.631L191.74 348.906L191.59 348.887L191.695 348.631Z" fill="white"/>
<path opacity="0.3" d="M190.464 350.273L190.302 350.149L190.742 350.236L190.446 350.179L190.464 350.273Z" fill="white"/>
<path opacity="0.3" d="M191.156 347.806C191.193 347.75 191.145 347.71 191.185 347.662L191.546 347.845L191.164 347.803L191.156 347.806Z" fill="white"/>
<path opacity="0.3" d="M190.282 348.973C190.322 348.926 189.23 349.264 189.711 348.627L189.766 348.999C190.271 348.877 189.79 348.189 189.79 348.189L190.149 348.706L190.057 348.733C190.227 348.602 190.415 348.907 190.519 348.985C190.49 349.129 190.453 348.851 190.282 348.973Z" fill="white"/>
<path opacity="0.3" d="M188.754 350.225L189.032 350.188L188.805 350.273L188.754 350.225Z" fill="white"/>
<path opacity="0.3" d="M189.992 347.589L189.925 347.789L189.594 347.462L189.992 347.589Z" fill="white"/>
<path opacity="0.3" d="M188.29 348.305C187.909 347.929 188.013 348.007 187.72 347.624C187.891 347.835 188.539 348.078 188.29 348.305Z" fill="white"/>
<path opacity="0.3" d="M188.431 346.911C188.323 347.159 188.641 347.075 188.668 347.256L188.335 346.921L188.431 346.911Z" fill="white"/>
<path d="M176.148 362.547C175.804 362.45 175.885 362.02 176.067 361.994C176.423 361.519 176.727 361.664 177.184 361.837C177.313 362.43 176.522 362.5 176.148 362.547Z" fill="#6D762C"/>
<path d="M168.143 359.179C167.086 359.048 165.905 360.062 165.146 359.076C164.976 358.865 165.37 358.334 165.667 358.391C167.31 358.306 169.813 357.616 170.316 359.822C169.693 360.095 168.724 359.622 168.143 359.179Z" fill="#6D762C"/>
<path d="M180.625 340.535C180.369 340.43 180.44 339.904 180.668 339.819C180.225 340.4 181.26 340.024 180.625 340.535Z" fill="#6D762C"/>
<path d="M180.758 339.143L181.024 339.345L180.892 339.077L180.758 339.143Z" fill="#6D762C"/>
<path opacity="0.3" d="M172.426 349.868C172.533 349.62 172.39 349.256 172.69 349.078C173.376 349.265 172.551 349.805 172.426 349.868Z" fill="white"/>
<path d="M168.863 353.827L169.167 353.973L169.073 353.991L168.863 353.827Z" fill="white"/>
<path d="M171.961 344.54L172.059 344.195C171.991 344.396 172.258 344.597 172.351 344.579L172.315 344.301C172.412 343.956 172.619 344.446 172.782 344.569C172.618 344.78 172.131 344.995 171.97 344.537L171.961 344.54Z" fill="#6D762C"/>
<path d="M171.079 342.301C171.595 342.276 171.354 342.59 171.639 342.885L171.19 342.71L171.651 343.973C171.177 343.616 171.019 342.832 171.088 342.298L171.079 342.301Z" fill="#6D762C"/>
<path d="M172.631 341.565C172.443 340.926 171.721 340.462 171.611 339.719C172.364 339.705 173.331 340.846 173.221 341.762L172.62 341.56L172.631 341.565Z" fill="#6D762C"/>
<path opacity="0.3" d="M172.87 341.244L172.851 341.15L173.088 341.495L172.528 341.155L172.87 341.244Z" fill="white"/>
<path d="M164.057 352.612L164.099 352.557L163.836 352.359L163.794 352.414L164.057 352.612Z" fill="#6D762C"/>
<path opacity="0.3" d="M172.329 340.752C172.511 340.726 172.014 340.511 171.922 340.195C171.963 339.813 172.912 340.527 172.329 340.752Z" fill="white"/>
<path d="M161.443 351.226C161.803 351.409 162.422 351.796 162.432 351.892L161.443 351.226Z" fill="#6D762C"/>
<path d="M165.273 346.144C165.846 345.822 165.022 345.045 164.782 345.025C165.402 345.078 165.512 345.821 165.614 346.233L165.27 346.135L165.273 346.144Z" fill="#6D762C"/>
<path d="M165.142 345.884L165.168 346.066L164.902 345.864L165.142 345.884Z" fill="#6D762C"/>
<path d="M160.597 350.925C160.571 350.743 160.686 350.583 160.772 350.476C160.572 350.409 160.834 351.27 161.302 351.205C161.08 351.279 160.816 351.086 160.597 350.925Z" fill="#6D762C"/>
<path d="M164.097 344.847C164.108 344.609 164.68 344.621 164.709 344.811L164.431 344.848C164.23 345.114 164.63 345.249 164.79 345.365C164.389 345.564 164.316 345.008 164.105 344.844L164.097 344.847Z" fill="#6D762C"/>
<path d="M162.009 344.431L162.011 344.097C162.252 343.783 162.66 344.006 162.783 344.177C162.912 344.771 162.37 344.614 162.018 344.429L162.009 344.431Z" fill="#6D762C"/>
<path d="M164.797 334.667C164.912 334.506 165.045 334.774 165.149 334.852C165.071 334.956 164.901 334.744 164.797 334.667Z" fill="#6D762C"/>
<path d="M162.977 332.46C162.729 332.352 162.952 331.944 163.19 331.956C163.19 331.956 163.215 332.471 162.977 332.46Z" fill="#6D762C"/>
<path d="M147.255 331.403C147.285 331.259 147.085 331.191 147.028 331.154L147.93 331.827L146.843 331.506L147.255 331.403Z" fill="#6D762C"/>
<path d="M145.657 330.119L145.735 330.016L145.314 329.698L145.236 329.802L145.657 330.119Z" fill="#6D762C"/>
<path d="M144.751 330.767L144.683 330.535C144.896 330.463 145.019 330.635 145.093 330.856C144.911 330.883 144.855 330.845 144.749 330.759L144.751 330.767Z" fill="#6D762C"/>
<path d="M143.96 328.844L143.845 329.004C143.96 328.844 143.79 328.632 143.59 328.565L144.779 329.298C144.341 329.219 144.312 329.029 143.96 328.844Z" fill="#6D762C"/>
<path d="M142.853 328.33C143.295 328.083 143.001 329.017 143.583 329.126C143.52 328.666 142.533 329.082 142.853 328.33Z" fill="#6D762C"/>
<path d="M130.754 320.385L130.487 320.183C130.67 319.823 131.138 319.758 131.337 320.159C131.165 320.282 130.954 320.452 130.754 320.385Z" fill="#6D762C"/>
</g>
</g>
<g clip-path="url(#clip1_365_40)">
<g opacity="0.85">
<path d="M40.1122 106.965C40.0077 106.362 40.8868 105.649 41.4234 106.226C40.314 106.182 40.9082 106.947 41.0768 107.376L41.2447 107.199C41.3095 107.63 40.6791 107.974 40.9789 108.157C40.7527 107.539 39.6569 107.374 39.5768 108.172C39.7359 108.861 39.803 108.79 40.2108 109.11L40.2844 108.675C40.1029 108.974 40.6121 109.793 39.9913 109.876C40.541 111.474 42.692 111.027 43.757 111.902C42.8062 111.37 42.2196 112.024 41.2825 111.37C40.2206 110.598 39.2963 109.217 39.1543 107.939C39.4712 107.534 39.6996 105.901 40.0944 106.948L40.1122 106.965Z" fill="#6D762C"/>
<path d="M43.9216 107.553C44.4541 107.991 44.8352 109.16 44.5361 109.582C45.446 108.159 42.6176 108.535 43.4634 107.287C42.8806 106.902 42.2127 106.571 41.609 106.065C42.307 106.828 43.7796 106.275 43.9216 107.553Z" fill="#6D762C"/>
<path d="M44.5657 109.979C44.8624 110.059 45.0951 110.314 45.1558 110.606L44.2553 110.021C44.3728 109.897 44.599 110.515 44.5657 109.979Z" fill="#6D762C"/>
<path d="M44.4516 111.384C43.8444 111.346 44.0942 111.012 43.8711 110.497L44.4516 111.384Z" fill="#6D762C"/>
<path d="M54.6325 106.755C55.9537 106.932 57.0941 108.014 57.7144 109.074L58.308 110.982C57.6337 111.014 57.213 111.422 57.7959 111.807C58.339 112.02 58.7806 111.732 58.9622 111.434C59.1308 111.863 59.9267 111.845 59.7209 112.49C60.6883 111.256 62.1472 110.825 63.7148 111.135L63.8632 112.049C65.9086 110.964 66.1319 113.227 67.9596 113.549C71.5227 114.004 68.5906 116.131 72.053 116.693C71.3283 116.778 70.0301 116.791 70.6179 117.92C71.1408 118.618 72.3303 117.864 72.9612 118.697C72.3713 119.819 69.2662 117.881 70.3461 120.419C71.0945 121.129 71.0247 122.273 71.3619 123.131C73.8163 124.148 74.2991 127.565 77.4712 127.683C76.1291 127.385 76.5846 128.725 76.2047 129.339C76.7682 130.815 78.2206 130.748 79.1115 131.593C78.7306 132.173 79.5063 132.64 78.6368 133.092C77.1095 131.812 75.8142 130.179 73.8998 129.271C73.155 129.842 71.9417 129.8 72.2012 130.954C72.7819 133.589 72.5442 137.23 73.8217 138.846C71.0697 135.394 67.6304 132.703 64.7104 129.428C62.7185 130.564 66.3464 131.451 65.2134 132.36C64.0268 131.469 63.2618 132.525 62.1459 132.845L59.1985 129.813C58.5914 129.775 58.5178 130.21 58.0898 130.375C56.2224 129.881 57.239 126.811 54.9163 126.726C54.1137 125.359 54.9386 123.99 53.8297 122.803C52.5387 123.058 54.3997 123.916 54.0626 124.806C53.402 124.717 53.4488 123.383 52.5217 123.647C52.1781 124.901 53.6989 126.546 52.1623 127.273C51.9563 126.17 50.7739 127.166 50.3151 126.294C49.4592 126.625 50.0356 127.374 50.4434 127.693C49.5299 127.835 49.6271 126.448 48.9665 126.359C48.4608 126.821 49.6516 127.85 48.4479 127.548C48.3464 127.049 47.8067 126.368 47.4061 126.291C46.847 126.702 47.6762 127.22 47.3593 127.625C45.9292 124.957 42.7055 123.109 42.8299 119.73C42.8054 118.329 43.5402 116.84 44.4696 116.075C45.5047 115.947 47.3887 114.675 48.3088 115.918C49.347 115.895 50.3418 116.737 51.1206 117.308C51.1545 116.702 51.1235 115.664 51.9122 115.403C53.2003 116.793 51.8057 118.799 53.0801 120.31C53.4131 119.281 54.3092 117.98 53.6753 117.042C54.1939 115.853 56.2168 115.755 55.5317 114.265C55.778 114.398 56.0707 114.339 56.3139 114.368C56.5366 113.705 56.3406 113.519 56.4919 112.789C54.6578 112.831 52.4093 111.168 52.4827 108.985C52.2903 107.76 53.4727 106.764 54.6147 106.738L54.6325 106.755Z" fill="#6D762C"/>
<path opacity="0.3" d="M54.9365 107.077C55.2066 108.006 55.7153 107.648 56.4198 108.047L56.1094 108.089C56.1403 109.127 57.6834 108.036 57.2224 109.414C57.3335 109.654 56.8787 108.92 56.6153 109.376C56.5951 109.861 57.2224 109.414 57.0806 109.885C56.8343 109.752 56.224 109.61 55.8769 109.583C55.6176 110.178 55.1047 110.397 54.6199 110.979L55.3583 110.772C54.8056 110.819 54.8389 111.355 54.5399 111.778C53.8145 111.257 53.862 110.529 53.0968 109.837C53.8452 110.547 53.0457 109.284 53.7306 109.026C53.1715 109.437 52.702 108.79 53.023 108.523L53.219 108.709L53.5287 108.061L53.6534 108.18C54.0473 106.872 53.8522 109.041 54.4997 108.108L53.9096 107.481L54.9543 107.094L54.9365 107.077Z" fill="white"/>
<path opacity="0.3" d="M54.4512 108.802C54.6862 108.555 54.4073 108.492 54.7817 108.275C54.7753 108.639 54.9568 108.341 55.0922 108.234C55.1735 109.219 54.3004 108.39 54.2024 109.172C53.8344 109.024 53.7097 108.906 53.6124 108.544C54.1619 108.393 53.9626 108.675 54.469 108.819L54.4512 108.802Z" fill="#6D762C"/>
<path opacity="0.3" d="M54.1904 109.899C54.1904 109.899 53.7178 109.148 53.5362 109.446L54.4569 109.547L54.1904 109.899Z" fill="#6D762C"/>
<path opacity="0.3" d="M44.4213 119.66C44.6944 120.692 44.321 120.943 44.6381 122.286C45.0523 122.242 45.0286 121.446 45.4803 122.076L45.1164 122.067C44.6417 123.567 46.9975 122.44 46.6444 123.954L46.7756 123.709C47.3657 124.336 46.9346 124.398 47.8382 125.087C47.2345 124.581 47.0025 124.933 46.672 125.46C46.577 124.596 45.0533 124.596 45.5928 123.528L46.1359 123.741C45.7274 122.815 44.1063 122.454 44.1265 121.969L44.4232 122.048C44.2107 121.309 44.4254 119.798 43.6367 120.058C43.9471 120.017 44.4326 120.04 44.4391 119.676L44.4213 119.66Z" fill="white"/>
<path opacity="0.3" d="M54.9856 111.628L55.0425 111.212L55.467 111.514L54.9856 111.628Z" fill="white"/>
<path opacity="0.3" d="M45.7327 120.668L45.7255 120.426C46.8011 121.077 44.9231 120.808 45.2069 121.615C45.2408 121.008 44.9913 120.772 45.7327 120.668Z" fill="white"/>
<path opacity="0.3" d="M45.7055 121.518L45.6318 121.952L45.5167 121.574L45.7055 121.518Z" fill="white"/>
<path opacity="0.3" d="M45.1435 123.573L44.6854 123.306L45.1668 123.191L45.1435 123.573Z" fill="white"/>
<path opacity="0.3" d="M46.9847 123.168L46.6304 122.899L46.8055 122.964L46.9847 123.168Z" fill="white"/>
<path opacity="0.3" d="M47.5373 123.12L46.9503 122.597L47.2333 122.798L47.5373 123.12Z" fill="white"/>
<path opacity="0.3" d="M47.6987 123.307L47.9451 123.44L47.2708 123.473L47.7563 123.496L47.6987 123.307Z" fill="white"/>
<path opacity="0.3" d="M46.5943 125.756L46.3479 125.623L46.4329 125.569L46.5943 125.756Z" fill="white"/>
<path opacity="0.3" d="M48.3057 125.094L47.9756 124.478L48.0428 124.407L48.3057 125.094Z" fill="white"/>
<path opacity="0.3" d="M46.8267 126.011C47.1306 126.332 46.7091 126.134 46.5875 126.12C46.6547 126.049 46.7722 125.925 46.8267 126.011Z" fill="white"/>
<path opacity="0.3" d="M48.1686 126.309L48.6678 126.211L48.2024 125.702C49.1766 125.853 48.479 126.267 48.2334 126.74C47.8897 126.246 47.485 126.03 47.673 125.368C47.7882 125.746 47.8321 126.057 48.1854 126.291L48.1686 126.309Z" fill="white"/>
<path opacity="0.3" d="M48.747 124.806C48.9293 125.114 48.6295 124.93 48.5078 124.915C48.575 124.845 48.6295 124.93 48.747 124.806Z" fill="white"/>
<path opacity="0.3" d="M49.6338 125.513C49.8528 125.889 49.6411 125.755 49.4451 125.569C49.4451 125.569 49.508 125.551 49.6338 125.513Z" fill="white"/>
<path d="M54.8327 134.345L54.4551 134.458L54.7079 134.227L54.8327 134.345Z" fill="#6D762C"/>
<path opacity="0.3" d="M61.0167 129.311L61.0703 129.261L60.903 129.081L60.8494 129.131L61.0167 129.311Z" fill="white"/>
<path opacity="0.3" d="M72.3409 128.666C72.3409 128.666 72.3984 128.855 72.3481 128.908C72.1017 128.775 71.7515 128.645 71.7443 128.402C71.9865 128.397 72.1017 128.775 72.3409 128.666Z" fill="white"/>
<path opacity="0.3" d="M71.1763 130.822C71.0012 130.757 70.6843 131.162 70.8499 131.487C70.3205 131.153 70.7484 130.988 71.1763 130.822Z" fill="white"/>
<path d="M76.8194 140.647C77.8921 142.943 80.181 143.635 81.662 145.107C83.0747 144.867 84.7907 146.092 85.2294 147.45C84.808 147.251 84.3555 146.015 83.7324 146.601C85.1654 147.624 83.2915 147.494 84.8787 148.462L85.4515 147.929C85.3887 149.887 84.8362 151.682 86.9905 153.088C88.0459 154.223 89.5091 155.679 90.3295 157.062C90.8525 157.76 90.1782 157.793 89.6999 158.011C86.7332 156.071 85.3961 151.877 82.2852 150.91C80.1988 150.04 82.1324 148.109 80.8515 146.961C80.6669 147.155 80.8954 147.271 81.0202 147.39C80.6326 146.585 79.9554 148.262 79.871 147.173C80.3234 148.41 79.9525 149.907 80.9681 150.87C79.028 146.777 76.7953 142.743 74.3705 139.232C75.3415 139.279 75.7162 140.811 76.8719 140.663L76.8194 140.647Z" fill="#6D762C"/>
<path opacity="0.32" d="M78.5154 143.651L78.5869 143.585L78.3026 143.279L78.2311 143.346L78.5154 143.651Z" fill="white"/>
<path d="M70.163 152.588C71.768 153.573 71.2868 155.436 71.8502 156.912C71.1623 157.066 70.7243 156.314 70.0867 156.415C70.5218 156.492 70.5859 156.318 70.9562 155.963L70.8387 156.087C70.8281 156.312 71.1248 156.392 71.3136 156.336C71.5866 155.62 71.5694 154.46 71.2119 154.087L70.4842 154.069L71.1009 153.848C70.5643 153.271 69.9879 152.523 69.1889 152.437C69.155 153.044 68.7141 153.937 67.9288 153.729C68.0908 152.774 69.098 151.712 70.1462 152.606L70.163 152.588Z" fill="#6D762C"/>
<path opacity="0.32" d="M80.0297 144.365C79.3352 144.883 79.6819 143.733 78.9613 143.957C79.3957 143.427 79.9122 144.489 80.0297 144.365Z" fill="white"/>
<path d="M69.1865 155.83C68.9603 155.212 68.0533 154.99 68.0296 154.195C68.1822 155.247 69.1189 154.724 69.1865 155.83Z" fill="#6D762C"/>
<path opacity="0.32" d="M80.3599 145.587L79.996 145.578C80.4751 145.965 79.5415 146.592 80.4988 146.761C80.4412 146.572 80.63 146.515 80.6941 146.341C80.9642 147.27 79.6388 146.953 79.4702 146.525C79.9694 146.427 79.4968 145.676 79.4529 145.365C79.0785 145.581 78.422 145.631 78.5524 144.78C78.8492 144.859 79.6143 145.552 80.3599 145.587Z" fill="white"/>
<path d="M69.8408 156.283L69.3114 155.948L69.6218 155.907L69.8408 156.283Z" fill="#6D762C"/>
<path opacity="0.32" d="M82.615 146.886L81.9407 146.919L82.1977 146.827L82.615 146.886Z" fill="white"/>
<path opacity="0.32" d="M80.8031 148.225C80.4862 148.631 81.2757 148.976 80.6014 149.009C80.2577 148.515 81.1029 148.409 80.8031 148.225Z" fill="#6D762C"/>
<path opacity="0.32" d="M82.3872 148.519C81.7568 148.862 82.0904 148.439 81.4867 147.933L82.3872 148.519Z" fill="white"/>
<path opacity="0.32" d="M83.6064 146.448L83.5595 146.034L83.616 146.188L83.6064 146.448Z" fill="white"/>
<path opacity="0.32" d="M83.0808 147.394L82.9633 147.518L83.7884 147.897C83.0235 148.954 83.0127 147.43 82.5241 147.303C82.6488 147.421 82.8985 147.087 83.063 147.377L83.0808 147.394Z" fill="white"/>
<path opacity="0.32" d="M82.0469 149.305L81.7566 148.861L82.1246 149.009L82.0469 149.305Z" fill="white"/>
<path opacity="0.32" d="M84.6794 148.743L84.5139 148.418L84.8819 148.565L84.6794 148.743Z" fill="white"/>
<path d="M82.9342 152.367C83.8649 153.384 84.9341 154.398 84.5128 155.949C84.1959 156.354 84.3581 157.147 83.7277 157.49C82.5784 157.274 81.4323 157.161 80.5657 155.969C80.0533 155.046 79.5945 154.174 80.0627 153.038C80.6622 151.657 81.9906 152.076 82.9342 152.367Z" fill="#6D762C"/>
<path d="M75.2625 161.595C75.6702 161.915 75.4822 162.577 75.287 162.997C74.8453 163.284 74.3735 163.139 73.8986 162.89C73.0046 161.941 74.511 160.781 75.2803 161.612L75.2625 161.595Z" fill="#6D762C"/>
<path opacity="0.32" d="M82.1669 155.067L81.3614 155.345C81.8534 155.005 81.3976 154.236 82.1669 155.067Z" fill="white"/>
<path opacity="0.32" d="M85.4219 152.171L85.182 151.674L85.442 151.686L85.4219 152.171Z" fill="white"/>
<path opacity="0.32" d="M82.6587 154.727C82.6652 154.363 84.2328 154.674 83.4813 153.86C84.0916 154.002 83.8121 155.082 83.9841 155.043L83.3163 154.712C83.1649 155.443 83.9567 155.286 83.5799 156.005L82.8521 155.986C83.2563 155.025 83.2865 155.457 82.5885 154.694L82.6598 154.762L82.6587 154.727Z" fill="white"/>
<path opacity="0.32" d="M82.6697 156.25L83.7655 156.415C83.0206 156.986 82.5724 155.888 82.1137 156.765C82.3593 156.292 81.355 155.708 82.0892 155.363C82.5545 155.872 82.6281 155.437 82.6697 156.25Z" fill="white"/>
<path opacity="0.32" d="M86.6088 153.061L86.201 152.742L86.5512 152.872L86.6088 153.061Z" fill="white"/>
<path opacity="0.32" d="M86.5613 153.94L86.6328 153.874L86.3317 153.55L86.2602 153.617L86.5613 153.94Z" fill="white"/>
<path d="M66.7371 178.218C68.7875 181.946 67.0196 185.95 67.068 189.896C66.5119 190.411 65.9123 190.044 65.5717 189.653C64.7252 187.976 65.9845 186.078 64.8245 184.338C64.4837 182.199 64.122 179.94 65.395 177.92C65.8366 177.633 66.3755 177.707 66.7371 178.218Z" fill="#6D762C"/>
<path opacity="0.32" d="M88.9829 156.626C88.8047 156.457 89.1919 156.084 89.4245 156.339C89.1895 156.586 88.7675 157.531 88.3936 156.604L89.0007 156.643L88.9829 156.626Z" fill="white"/>
<path opacity="0.32" d="M90.0727 157.155C90.1571 158.244 89.5977 156.906 89.2744 157.675C89.1729 157.176 89.6649 156.835 90.0727 157.155Z" fill="white"/>
<path d="M78.5371 176.201C79.5688 176.541 79.5765 177.96 79.4954 178.724C78.6727 177.843 79.0495 177.124 78.7058 176.63L78.8274 176.645C78.7835 176.334 78.5371 176.201 78.4196 176.325C77.8029 176.547 78.5818 177.118 78.0185 177.39C77.742 176.825 77.3442 177.423 77.118 176.805C76.4373 177.201 77.26 178.082 77.1864 178.517C77.3711 178.322 78.6163 179.436 79.6705 178.789L80.0516 179.958C79.2492 180.34 79.1785 179.129 78.1842 179.464C77.3687 178.824 76.4202 177.79 76.6431 176.556C77.1049 175.784 77.8159 175.819 78.5371 176.201Z" fill="#6D762C"/>
<path opacity="0.35" d="M77.732 176.478C77.4929 176.587 77.1687 176.751 77.1218 176.336L77.732 176.478Z" fill="white"/>
<path d="M84.7816 198.633C86.5041 199.494 85.8341 201.413 86.34 202.7C85.5203 201.923 84.2934 202.002 83.6563 200.961C83.4301 200.343 83.0288 199.66 83.4265 199.062C83.6858 198.467 84.3495 198.66 84.7816 198.633Z" fill="#6D762C"/>
<path opacity="0.3" d="M84.8325 199.185C85.0587 199.803 85.679 200.863 86.0501 201.114C86.1986 202.028 84.7015 201.179 85.7634 201.951C85.3283 201.875 84.9438 201.174 84.3103 201.413C84.8224 200.588 84.0603 199.999 83.5676 199.733C83.8406 199.017 84.37 199.352 84.7979 199.186L84.8325 199.185Z" fill="white"/>
<path d="M88.433 210.166C89.3911 210.94 89.5835 212.165 89.4287 213.363C88.6767 213.692 87.9115 212.999 87.2039 212.496C87.1131 211.771 86.5627 211.316 86.9711 210.493C87.3551 210.017 87.891 209.988 88.4509 210.183L88.433 210.166Z" fill="#6D762C"/>
<path opacity="0.3" d="M87.233 211.145C87.7048 211.29 87.4347 210.361 88.0385 210.867L87.9607 211.163C87.7856 211.097 87.1689 211.319 87.1754 210.956C87.1754 210.956 87.1617 211.077 87.233 211.145Z" fill="white"/>
<path opacity="0.3" d="M87.6276 212.192C87.4388 212.248 87.0173 212.05 87.2702 211.819L87.6444 212.174L87.6276 212.192Z" fill="white"/>
<path opacity="0.3" d="M89.1616 211.966C87.9548 211.561 89.4893 213.084 88.3432 212.972L88.5888 212.499L88.4672 212.484C88.2273 211.988 88.7905 211.715 89.0968 211.535L89.1438 211.95L89.1616 211.966Z" fill="white"/>
<path d="M81.8467 209.934C82.3833 210.51 83.1722 211.999 82.1276 212.386C81.4396 212.54 80.7416 211.777 80.4619 211.108C80.3604 210.609 80.2997 210.316 80.495 209.896C80.879 209.42 81.4756 209.683 81.8299 209.952L81.8467 209.934Z" fill="#6D762C"/>
<path opacity="0.3" d="M80.9675 211.252C81.453 211.276 81.2405 210.536 81.5971 210.303L82.2585 210.998C81.1325 210.4 82.6461 211.803 81.6823 211.998C81.1968 211.974 81.0145 211.667 80.7516 210.98L81.0011 211.217L80.9675 211.252Z" fill="white"/>
</g>
</g>
</g>
<defs>
<clipPath id="clip0_365_40">
<rect width="71.4661" height="78.9251" fill="white" transform="translate(207.805 368.729) rotate(163.639)"/>
</clipPath>
<clipPath id="clip1_365_40">
<rect width="115" height="65" fill="white" transform="translate(88.4277 219.306) rotate(-136.507)"/>
</clipPath>
</defs>
</svg>
