<svg width="336" height="146" viewBox="0 0 336 146" fill="none" xmlns="http://www.w3.org/2000/svg">
<path d="M334.176 144.858L299.914 144.606L266.822 145.611L233.712 143.957L200.619 142.292L167.509 143.423L134.4 145.988L101.289 144.397L68.1792 142.732L35.0691 142.502L2.57933 143.695L2.78925 126.409L3.44199 108.715L3.4924 91.0095L0.212333 73.315L3.38065 55.6204L5.16717 37.9154L3.87122 20.2104L2.07926 2.5996L35.03 3.66755L68.1399 2.71477L101.232 4.44234L134.342 4.04448L167.452 3.16498L200.545 4.09683L233.655 4.14918L266.764 0.945313L299.892 1.17566L335.092 1.13378L331.977 20.1999L335.559 37.9049L332.373 55.5995L333.633 73.294L329.951 90.9991L330.645 108.704L335.714 126.378L334.176 144.858Z" fill="#ECEAE5"/>
</svg>
