<svg width="503" height="311" viewBox="0 0 503 311" fill="none" xmlns="http://www.w3.org/2000/svg">
<mask id="mask0_365_40" style="mask-type:alpha" maskUnits="userSpaceOnUse" x="0" y="0" width="503" height="311">
<rect x="503" width="311" height="503" transform="rotate(90 503 0)" fill="#D9D9D9"/>
</mask>
<g mask="url(#mask0_365_40)">
<path d="M362.758 240.201L366.721 220.618L372.684 209.386L392.541 213.018L412.046 229.187L434.313 229.239L458.111 226.098L490.701 241.958L492.98 272.851L467.59 298.097L429.633 290.059L412.264 270.641L389.301 256.626L362.758 240.201Z" fill="#ECEAE5"/>
<path d="M333.045 79.2657L321.029 95.3933L316.585 107.421L332.466 119.929L357.488 123.758L372.29 140.483L385.719 160.504L419.185 174.388L443.796 155.368L445.841 119.31L414.665 96.1359L388.63 96.0961L362.925 88.2195L333.045 79.2657Z" fill="#ECEAE5"/>
<path d="M140.456 15.9883L134.237 34.9756L133.879 47.687L152.942 54.3296L177.886 49.8955L197.277 60.841L216.424 75.3191L252.595 77.612L269.825 51.8699L260.205 17.3806L223.227 5.63623L198.537 13.9505L171.648 14.805L140.456 15.9883Z" fill="#ECEAE5"/>
<path d="M179.5 181.273L179.875 161.297L183.721 149.176L203.907 149.177L226.003 161.572L247.916 157.618L270.761 150.248L305.671 159.986L313.471 189.965L293.037 219.367L254.253 218.288L233.674 202.311L208.564 192.656L179.5 181.273Z" fill="#ECEAE5"/>
<path d="M10.0991 116.533L11.2138 96.5842L15.5059 84.6139L35.6787 85.3621L57.2997 98.5677L79.3443 95.4276L102.446 88.908L136.973 99.9324L143.657 130.179L122.148 158.805L83.4303 156.29L63.4572 139.563L38.7224 128.984L10.0991 116.533Z" fill="#ECEAE5"/>
<g clip-path="url(#clip0_365_40)">
<g opacity="0.9">
<path d="M140.829 196.013C139.691 194.995 138.927 193.253 138.369 192.335C138.314 191.963 138.792 191.994 138.708 191.676C137.757 190.954 138.641 189.883 137.663 189.314C138.258 188.516 137.83 187.118 138.255 186.109C138.096 185.66 137.849 185.219 137.326 184.912C137.703 184.197 138.357 185.196 138.94 184.971C139.26 182.559 141.456 180.976 141.698 178.669C141.964 178.87 141.923 179.252 142.056 179.519C142.742 179.706 142.547 178.979 142.919 178.59C142.869 177.558 142.432 177.145 141.747 176.625C142.026 176.255 142.772 176.153 143.016 176.586L145.267 173.716C145.119 173.029 145.047 172.473 145.03 171.711C146.08 171.755 144.794 173.025 145.948 173.146C146.505 172.739 146.795 172.131 146.338 171.526C147.174 170.748 149.385 171.001 148.661 169.211C148.653 167.464 149.77 165.648 150.793 164.185C150.549 165.167 149.774 167.072 148.889 168.143L149.751 167.548C149.816 168.015 149.023 168.077 148.818 168.669C148.952 168.603 149.6 168.845 149.957 168.371C149.92 168.093 149.642 168.13 149.452 168.158C149.634 168.132 149.758 167.969 149.932 167.855C150.91 168.425 149.399 169.112 150.082 169.966L151.034 170.688C150.28 170.702 149.721 170.118 148.916 170.417C149.045 171.01 148.516 171.941 149.469 171.995C150.399 171.199 152.196 172.557 152.648 172.072C153.138 171.865 152.29 171.221 152.94 171.13C153.287 172.218 154.979 171.839 155.24 173.034C155.027 173.538 154.444 173.763 153.954 173.97L154.616 174.966C154.107 175.413 153.683 176.088 154.031 176.842C154.298 177.044 154.747 176.885 154.936 177.19C155.845 178.628 154.173 180.183 154.557 181.215C155.263 181.161 155.593 180.505 156.136 180.328C154.624 181.349 157.338 182.148 155.537 183.11C156.241 183.724 157.262 181.918 157.779 183.218C157.406 183.607 156.888 183.624 156.346 183.468C156.174 183.59 156.333 184.04 156.464 184.299C157.083 184.351 157.794 183.638 158.095 184.451C157.55 184.62 157.063 184.835 156.65 185.272C157.295 185.84 156.364 186.97 157.41 187.34C157.861 186.847 159.026 186.73 159.174 187.417C158.653 188.102 156.483 187.468 156.892 189.016C156.691 189.282 156.686 189.942 157.088 189.743C158.054 189.225 159.072 190.08 160.074 190.084C159.699 190.465 158.296 190.57 157.436 190.498C157.067 191.544 155.693 191.596 155.057 192.441C155.081 193.29 155.824 193.18 156.368 193.679C154.43 193.716 152.438 195.04 150.449 195.696L150.565 196.862C149.282 196.147 148.59 196.954 147.264 196.613C146.889 196.994 147.471 197.103 147.106 197.489C146.366 196.597 145.452 197.813 144.933 196.847L144.547 197.465C144.218 196.804 143.198 196.617 142.867 197.273C142.549 196.374 141.787 195.958 140.841 195.992L140.829 196.013Z" fill="#6D762C"/>
<path opacity="0.3" d="M148.997 195.203L148.767 195.279L148.89 195.117L148.997 195.203Z" fill="white"/>
<path opacity="0.3" d="M149.312 194.777L149.713 194.912L149.743 194.768L149.864 195.273C149.943 194.835 149.426 195.194 149.323 194.782L149.312 194.777Z" fill="white"/>
<path opacity="0.3" d="M149.938 192.176C150.243 192.321 149.965 192.358 149.823 192.336C149.719 192.258 149.834 192.098 149.938 192.176Z" fill="white"/>
<path opacity="0.3" d="M152.133 194.002C152.163 193.858 152.267 193.936 152.364 193.926C152.326 193.982 152.218 194.23 152.133 194.002Z" fill="white"/>
<path opacity="0.3" d="M152.061 193.446L151.923 193.838L151.819 193.761L152.061 193.446Z" fill="white"/>
<path opacity="0.3" d="M151.406 192.538C151.565 192.988 151.291 192.698 151.184 192.612L151.409 192.546L151.406 192.538Z" fill="white"/>
<path opacity="0.3" d="M152.605 192.935C152.792 192.249 153.637 192.885 154.002 192.408C153.552 192.567 153.072 193.204 153.584 193.504C153.226 192.653 152.867 193.796 152.605 192.935Z" fill="white"/>
<path opacity="0.3" d="M151.839 191.861C152.086 191.969 151.741 192.205 151.626 192.365C151.961 192.033 151.456 192.154 151.839 191.861Z" fill="white"/>
<path opacity="0.3" d="M152.467 192.344L152.286 192.371L152.249 192.093L152.467 192.344Z" fill="white"/>
<path opacity="0.3" d="M153.924 192.944L154.342 193.263C154.037 193.452 153.942 193.128 153.924 192.944Z" fill="white"/>
<path opacity="0.3" d="M152.575 192.096C152.844 191.629 152.828 191.543 153.074 191.643C152.335 192.076 153.749 192.067 153.165 192.292L153.203 192.236C153.07 191.968 152.773 192.245 152.565 192.09L152.575 192.096Z" fill="white"/>
<path opacity="0.3" d="M154.539 192.241L154.366 192.697L154.327 192.411L154.539 192.241Z" fill="white"/>
<path opacity="0.3" d="M153.38 191.363C152.901 191.332 153.621 191.049 153.114 190.828C153.715 191.03 153.629 191.137 153.51 191.623C153.406 191.545 153.339 191.411 153.377 191.355L153.38 191.363Z" fill="white"/>
<path opacity="0.3" d="M154.369 191.695L154.094 191.74L154.113 191.59L154.369 191.695Z" fill="white"/>
<path opacity="0.3" d="M152.727 190.464L152.851 190.302L152.764 190.742L152.821 190.446L152.727 190.464Z" fill="white"/>
<path opacity="0.3" d="M155.194 191.156C155.25 191.193 155.29 191.145 155.338 191.185L155.155 191.546L155.197 191.164L155.194 191.156Z" fill="white"/>
<path opacity="0.3" d="M154.027 190.282C154.074 190.322 153.736 189.23 154.373 189.711L154.001 189.766C154.123 190.271 154.811 189.79 154.811 189.79L154.294 190.149L154.267 190.057C154.398 190.227 154.093 190.415 154.015 190.519C153.871 190.49 154.149 190.453 154.027 190.282Z" fill="white"/>
<path opacity="0.3" d="M152.775 188.754L152.812 189.032L152.727 188.805L152.775 188.754Z" fill="white"/>
<path opacity="0.3" d="M155.411 189.992L155.211 189.925L155.538 189.594L155.411 189.992Z" fill="white"/>
<path opacity="0.3" d="M154.695 188.29C155.071 187.909 154.993 188.013 155.376 187.72C155.165 187.891 154.922 188.539 154.695 188.29Z" fill="white"/>
<path opacity="0.3" d="M156.089 188.431C155.841 188.323 155.925 188.641 155.744 188.668L156.079 188.335L156.089 188.431Z" fill="white"/>
<path d="M140.453 176.148C140.55 175.804 140.98 175.885 141.006 176.067C141.481 176.423 141.336 176.727 141.163 177.184C140.57 177.313 140.5 176.522 140.453 176.148Z" fill="#6D762C"/>
<path d="M143.821 168.143C143.952 167.086 142.938 165.905 143.924 165.146C144.135 164.976 144.666 165.37 144.609 165.667C144.694 167.31 145.384 169.813 143.178 170.316C142.905 169.693 143.378 168.724 143.821 168.143Z" fill="#6D762C"/>
<path d="M162.465 180.625C162.57 180.369 163.096 180.44 163.181 180.668C162.6 180.225 162.976 181.26 162.465 180.625Z" fill="#6D762C"/>
<path d="M163.857 180.758L163.655 181.024L163.923 180.892L163.857 180.758Z" fill="#6D762C"/>
<path opacity="0.3" d="M153.132 172.426C153.38 172.533 153.744 172.39 153.922 172.69C153.735 173.376 153.195 172.551 153.132 172.426Z" fill="white"/>
<path d="M149.173 168.863L149.027 169.167L149.009 169.073L149.173 168.863Z" fill="white"/>
<path d="M158.46 171.961L158.805 172.059C158.604 171.991 158.403 172.258 158.421 172.351L158.699 172.315C159.044 172.412 158.554 172.619 158.431 172.782C158.22 172.618 158.005 172.131 158.463 171.97L158.46 171.961Z" fill="#6D762C"/>
<path d="M160.699 171.079C160.724 171.595 160.41 171.354 160.115 171.639L160.29 171.19L159.027 171.651C159.384 171.177 160.168 171.019 160.702 171.088L160.699 171.079Z" fill="#6D762C"/>
<path d="M161.435 172.631C162.074 172.443 162.538 171.721 163.281 171.611C163.295 172.364 162.154 173.331 161.238 173.221L161.44 172.62L161.435 172.631Z" fill="#6D762C"/>
<path opacity="0.3" d="M161.756 172.87L161.85 172.851L161.505 173.088L161.845 172.528L161.756 172.87Z" fill="white"/>
<path d="M150.388 164.057L150.443 164.099L150.641 163.836L150.586 163.794L150.388 164.057Z" fill="#6D762C"/>
<path opacity="0.3" d="M162.248 172.329C162.274 172.511 162.489 172.014 162.805 171.922C163.187 171.963 162.473 172.912 162.248 172.329Z" fill="white"/>
<path d="M151.774 161.443C151.591 161.803 151.204 162.422 151.108 162.432L151.774 161.443Z" fill="#6D762C"/>
<path d="M156.856 165.273C157.178 165.846 157.955 165.022 157.975 164.782C157.922 165.402 157.179 165.512 156.767 165.614L156.865 165.27L156.856 165.273Z" fill="#6D762C"/>
<path d="M157.116 165.142L156.934 165.168L157.136 164.902L157.116 165.142Z" fill="#6D762C"/>
<path d="M152.075 160.597C152.257 160.571 152.417 160.686 152.524 160.772C152.591 160.572 151.73 160.834 151.795 161.302C151.721 161.08 151.914 160.816 152.075 160.597Z" fill="#6D762C"/>
<path d="M158.153 164.097C158.391 164.108 158.379 164.68 158.189 164.709L158.152 164.431C157.886 164.23 157.751 164.63 157.635 164.79C157.436 164.389 157.992 164.316 158.156 164.105L158.153 164.097Z" fill="#6D762C"/>
<path d="M158.569 162.009L158.903 162.011C159.217 162.252 158.994 162.66 158.823 162.783C158.229 162.912 158.386 162.37 158.571 162.018L158.569 162.009Z" fill="#6D762C"/>
<path d="M168.333 164.797C168.494 164.912 168.226 165.045 168.148 165.149C168.044 165.071 168.256 164.901 168.333 164.797Z" fill="#6D762C"/>
<path d="M170.54 162.977C170.648 162.729 171.056 162.952 171.044 163.19C171.044 163.19 170.529 163.215 170.54 162.977Z" fill="#6D762C"/>
<path d="M171.597 147.255C171.741 147.285 171.809 147.085 171.846 147.028L171.173 147.93L171.494 146.843L171.597 147.255Z" fill="#6D762C"/>
<path d="M172.881 145.657L172.984 145.735L173.302 145.314L173.198 145.236L172.881 145.657Z" fill="#6D762C"/>
<path d="M172.233 144.751L172.465 144.683C172.537 144.896 172.365 145.019 172.144 145.093C172.117 144.911 172.155 144.855 172.241 144.749L172.233 144.751Z" fill="#6D762C"/>
<path d="M174.156 143.96L173.996 143.845C174.156 143.96 174.368 143.79 174.435 143.59L173.702 144.779C173.781 144.341 173.971 144.312 174.156 143.96Z" fill="#6D762C"/>
<path d="M174.67 142.853C174.917 143.295 173.983 143.001 173.874 143.583C174.334 143.52 173.918 142.533 174.67 142.853Z" fill="#6D762C"/>
<path d="M182.615 130.754L182.817 130.487C183.177 130.67 183.242 131.138 182.841 131.337C182.718 131.165 182.548 130.954 182.615 130.754Z" fill="#6D762C"/>
</g>
</g>
<g clip-path="url(#clip1_365_40)">
<g opacity="0.85">
<path d="M396.035 40.1122C396.638 40.0077 397.351 40.8868 396.774 41.4234C396.818 40.314 396.053 40.9082 395.624 41.0768L395.801 41.2447C395.37 41.3095 395.026 40.6791 394.843 40.9789C395.461 40.7527 395.626 39.6569 394.828 39.5768C394.139 39.7359 394.21 39.803 393.89 40.2108L394.325 40.2844C394.026 40.1029 393.207 40.6121 393.124 39.9913C391.526 40.541 391.973 42.692 391.098 43.757C391.63 42.8062 390.976 42.2196 391.63 41.2825C392.402 40.2206 393.783 39.2963 395.061 39.1543C395.466 39.4712 397.099 39.6996 396.052 40.0944L396.035 40.1122Z" fill="#6D762C"/>
<path d="M395.447 43.9216C395.009 44.4541 393.84 44.8352 393.418 44.5361C394.841 45.446 394.465 42.6176 395.713 43.4634C396.098 42.8806 396.429 42.2127 396.935 41.609C396.172 42.307 396.725 43.7796 395.447 43.9216Z" fill="#6D762C"/>
<path d="M393.021 44.5657C392.941 44.8624 392.686 45.0951 392.394 45.1558L392.979 44.2553C393.103 44.3728 392.485 44.599 393.021 44.5657Z" fill="#6D762C"/>
<path d="M391.616 44.4516C391.654 43.8444 391.988 44.0942 392.503 43.8711L391.616 44.4516Z" fill="#6D762C"/>
<path d="M396.245 54.6325C396.068 55.9537 394.986 57.0941 393.926 57.7144L392.018 58.308C391.986 57.6337 391.578 57.213 391.193 57.7959C390.98 58.339 391.267 58.7806 391.566 58.9622C391.137 59.1308 391.155 59.9267 390.51 59.7209C391.744 60.6883 392.175 62.1472 391.865 63.7148L390.951 63.8632C392.036 65.9086 389.773 66.1319 389.451 67.9596C388.996 71.5227 386.869 68.5906 386.307 72.053C386.222 71.3283 386.209 70.0301 385.08 70.6179C384.382 71.1408 385.136 72.3303 384.303 72.9612C383.181 72.3713 385.119 69.2662 382.581 70.3461C381.871 71.0945 380.727 71.0247 379.869 71.3619C378.852 73.8163 375.435 74.2991 375.317 77.4712C375.615 76.1291 374.275 76.5846 373.661 76.2047C372.185 76.7682 372.252 78.2206 371.407 79.1115C370.827 78.7306 370.36 79.5063 369.908 78.6368C371.188 77.1095 372.821 75.8142 373.729 73.8998C373.158 73.155 373.2 71.9417 372.046 72.2012C369.411 72.7819 365.77 72.5442 364.154 73.8217C367.606 71.0697 370.297 67.6304 373.572 64.7104C372.436 62.7185 371.549 66.3464 370.64 65.2134C371.531 64.0268 370.475 63.2618 370.155 62.1459L373.187 59.1985C373.225 58.5914 372.79 58.5178 372.625 58.0898C373.119 56.2224 376.189 57.239 376.274 54.9163C377.641 54.1137 379.01 54.9386 380.197 53.8297C379.942 52.5387 379.084 54.3997 378.194 54.0626C378.283 53.402 379.617 53.4488 379.353 52.5217C378.099 52.1781 376.454 53.6989 375.727 52.1623C376.83 51.9563 375.834 50.7739 376.706 50.3151C376.375 49.4592 375.626 50.0356 375.307 50.4434C375.165 49.5299 376.552 49.6271 376.641 48.9665C376.179 48.4608 375.15 49.6516 375.452 48.4479C375.951 48.3464 376.632 47.8067 376.709 47.4061C376.298 46.847 375.78 47.6762 375.375 47.3593C378.043 45.9292 379.891 42.7055 383.27 42.8299C384.671 42.8054 386.16 43.5402 386.925 44.4696C387.053 45.5047 388.325 47.3887 387.082 48.3088C387.105 49.347 386.263 50.3418 385.692 51.1206C386.298 51.1545 387.336 51.1235 387.597 51.9122C386.207 53.2003 384.201 51.8057 382.69 53.0801C383.719 53.4131 385.02 54.3092 385.958 53.6753C387.147 54.1939 387.245 56.2168 388.735 55.5317C388.602 55.778 388.661 56.0707 388.632 56.3139C389.295 56.5366 389.481 56.3406 390.211 56.4919C390.169 54.6578 391.832 52.4093 394.015 52.4827C395.24 52.2904 396.236 53.4727 396.262 54.6147L396.245 54.6325Z" fill="#6D762C"/>
<path opacity="0.3" d="M395.923 54.9365C394.994 55.2066 395.352 55.7153 394.953 56.4198L394.911 56.1094C393.873 56.1403 394.964 57.6834 393.586 57.2224C393.346 57.3335 394.08 56.8787 393.624 56.6153C393.139 56.5951 393.586 57.2224 393.115 57.0806C393.248 56.8343 393.39 56.224 393.417 55.8769C392.822 55.6176 392.603 55.1047 392.021 54.6199L392.228 55.3583C392.181 54.8056 391.645 54.8389 391.222 54.5399C391.743 53.8145 392.471 53.862 393.163 53.0968C392.453 53.8452 393.716 53.0457 393.974 53.7306C393.563 53.1715 394.21 52.702 394.477 53.023L394.291 53.219L394.939 53.5287L394.82 53.6534C396.128 54.0473 393.959 53.8522 394.892 54.4997L395.519 53.9096L395.906 54.9543L395.923 54.9365Z" fill="white"/>
<path opacity="0.3" d="M394.198 54.4512C394.445 54.6862 394.508 54.4073 394.725 54.7817C394.361 54.7753 394.659 54.9568 394.766 55.0922C393.781 55.1735 394.61 54.3004 393.828 54.2024C393.976 53.8344 394.094 53.7097 394.456 53.6124C394.607 54.1619 394.325 53.9626 394.181 54.469L394.198 54.4512Z" fill="#6D762C"/>
<path opacity="0.3" d="M393.101 54.1904C393.101 54.1904 393.852 53.7178 393.554 53.5362L393.453 54.4569L393.101 54.1904Z" fill="#6D762C"/>
<path opacity="0.3" d="M383.34 44.4213C382.308 44.6944 382.057 44.321 380.714 44.6381C380.758 45.0523 381.554 45.0286 380.924 45.4803L380.933 45.1164C379.433 44.6417 380.56 46.9975 379.046 46.6444L379.291 46.7756C378.664 47.3657 378.602 46.9346 377.913 47.8382C378.419 47.2345 378.067 47.0025 377.54 46.672C378.404 46.577 378.404 45.0533 379.472 45.5928L379.259 46.1359C380.185 45.7274 380.546 44.1063 381.031 44.1265L380.952 44.4232C381.691 44.2107 383.202 44.4254 382.942 43.6367C382.983 43.9471 382.96 44.4326 383.324 44.4391L383.34 44.4213Z" fill="white"/>
<path opacity="0.3" d="M391.372 54.9856L391.788 55.0425L391.486 55.467L391.372 54.9856Z" fill="white"/>
<path opacity="0.3" d="M382.332 45.7327L382.574 45.7255C381.923 46.8011 382.192 44.9231 381.385 45.2069C381.992 45.2408 382.228 44.9913 382.332 45.7327Z" fill="white"/>
<path opacity="0.3" d="M381.482 45.7055L381.048 45.6318L381.426 45.5167L381.482 45.7055Z" fill="white"/>
<path opacity="0.3" d="M379.427 45.1435L379.694 44.6854L379.809 45.1668L379.427 45.1435Z" fill="white"/>
<path opacity="0.3" d="M379.832 46.9847L380.101 46.6304L380.036 46.8055L379.832 46.9847Z" fill="white"/>
<path opacity="0.3" d="M379.88 47.5373L380.403 46.9503L380.202 47.2333L379.88 47.5373Z" fill="white"/>
<path opacity="0.3" d="M379.693 47.6987L379.56 47.9451L379.527 47.2708L379.504 47.7563L379.693 47.6987Z" fill="white"/>
<path opacity="0.3" d="M377.244 46.5943L377.377 46.3479L377.431 46.4329L377.244 46.5943Z" fill="white"/>
<path opacity="0.3" d="M377.906 48.3057L378.522 47.9756L378.593 48.0428L377.906 48.3057Z" fill="white"/>
<path opacity="0.3" d="M376.989 46.8267C376.668 47.1306 376.866 46.7091 376.88 46.5875C376.951 46.6547 377.075 46.7722 376.989 46.8267Z" fill="white"/>
<path opacity="0.3" d="M376.691 48.1686L376.789 48.6678L377.298 48.2024C377.147 49.1766 376.733 48.479 376.26 48.2334C376.754 47.8897 376.97 47.485 377.632 47.673C377.254 47.7882 376.943 47.8321 376.709 48.1854L376.691 48.1686Z" fill="white"/>
<path opacity="0.3" d="M378.194 48.747C377.886 48.9293 378.07 48.6295 378.085 48.5078C378.155 48.575 378.07 48.6295 378.194 48.747Z" fill="white"/>
<path opacity="0.3" d="M377.487 49.6338C377.111 49.8528 377.245 49.6411 377.431 49.4451C377.431 49.4451 377.449 49.508 377.487 49.6338Z" fill="white"/>
<path d="M368.655 54.8327L368.542 54.4551L368.773 54.7079L368.655 54.8327Z" fill="#6D762C"/>
<path opacity="0.3" d="M373.689 61.0167L373.739 61.0703L373.919 60.903L373.869 60.8494L373.689 61.0167Z" fill="white"/>
<path opacity="0.3" d="M374.334 72.3409C374.334 72.3409 374.145 72.3984 374.092 72.3481C374.225 72.1017 374.355 71.7515 374.598 71.7443C374.603 71.9865 374.225 72.1017 374.334 72.3409Z" fill="white"/>
<path opacity="0.3" d="M372.178 71.1763C372.243 71.0012 371.838 70.6843 371.513 70.8499C371.847 70.3205 372.012 70.7484 372.178 71.1763Z" fill="white"/>
<path d="M362.353 76.8194C360.057 77.8921 359.365 80.181 357.893 81.662C358.133 83.0747 356.908 84.7907 355.55 85.2294C355.749 84.808 356.985 84.3555 356.399 83.7324C355.376 85.1654 355.506 83.2915 354.538 84.8787L355.071 85.4515C353.113 85.3887 351.318 84.8362 349.912 86.9905C348.777 88.0459 347.321 89.5091 345.938 90.3295C345.24 90.8525 345.207 90.1782 344.989 89.6999C346.929 86.7332 351.123 85.3961 352.09 82.2852C352.96 80.1988 354.891 82.1324 356.039 80.8515C355.845 80.6669 355.729 80.8954 355.61 81.0202C356.415 80.6326 354.738 79.9554 355.827 79.871C354.59 80.3234 353.093 79.9525 352.13 80.9681C356.223 79.028 360.257 76.7953 363.768 74.3705C363.721 75.3415 362.189 75.7162 362.337 76.8719L362.353 76.8194Z" fill="#6D762C"/>
<path opacity="0.32" d="M359.349 78.5154L359.415 78.5869L359.721 78.3026L359.654 78.2311L359.349 78.5154Z" fill="white"/>
<path d="M350.412 70.163C349.427 71.768 347.564 71.2868 346.088 71.8502C345.934 71.1623 346.686 70.7243 346.585 70.0867C346.508 70.5218 346.682 70.5859 347.037 70.9562L346.913 70.8387C346.688 70.8281 346.608 71.1248 346.664 71.3136C347.38 71.5866 348.54 71.5694 348.913 71.2119L348.931 70.4842L349.152 71.1009C349.729 70.5643 350.477 69.9879 350.563 69.1889C349.956 69.155 349.063 68.7141 349.271 67.9288C350.226 68.0908 351.288 69.098 350.394 70.1462L350.412 70.163Z" fill="#6D762C"/>
<path opacity="0.32" d="M358.635 80.0297C358.117 79.3352 359.267 79.6819 359.043 78.9613C359.573 79.3957 358.511 79.9122 358.635 80.0297Z" fill="white"/>
<path d="M347.17 69.1865C347.788 68.9603 348.01 68.0533 348.805 68.0296C347.753 68.1822 348.276 69.1189 347.17 69.1865Z" fill="#6D762C"/>
<path opacity="0.32" d="M357.413 80.3599L357.422 79.996C357.035 80.4751 356.408 79.5415 356.239 80.4988C356.428 80.4412 356.485 80.63 356.659 80.6941C355.73 80.9642 356.047 79.6388 356.475 79.4702C356.573 79.9694 357.324 79.4968 357.635 79.4529C357.419 79.0785 357.369 78.422 358.22 78.5524C358.141 78.8492 357.448 79.6143 357.413 80.3599Z" fill="white"/>
<path d="M346.717 69.8408L347.052 69.3114L347.093 69.6218L346.717 69.8408Z" fill="#6D762C"/>
<path opacity="0.32" d="M356.114 82.615L356.081 81.9407L356.173 82.1977L356.114 82.615Z" fill="white"/>
<path opacity="0.32" d="M354.775 80.8031C354.369 80.4862 354.024 81.2757 353.991 80.6014C354.485 80.2577 354.591 81.1029 354.775 80.8031Z" fill="#6D762C"/>
<path opacity="0.32" d="M354.481 82.3872C354.138 81.7568 354.561 82.0904 355.067 81.4867L354.481 82.3872Z" fill="white"/>
<path opacity="0.32" d="M356.552 83.6064L356.966 83.5595L356.812 83.616L356.552 83.6064Z" fill="white"/>
<path opacity="0.32" d="M355.606 83.0808L355.482 82.9633L355.103 83.7884C354.046 83.0235 355.57 83.0127 355.697 82.5241C355.579 82.6488 355.913 82.8985 355.623 83.063L355.606 83.0808Z" fill="white"/>
<path opacity="0.32" d="M353.695 82.0469L354.139 81.7566L353.991 82.1246L353.695 82.0469Z" fill="white"/>
<path opacity="0.32" d="M354.257 84.6794L354.582 84.5139L354.435 84.8819L354.257 84.6794Z" fill="white"/>
<path d="M350.633 82.9342C349.616 83.8649 348.602 84.9341 347.051 84.5128C346.646 84.1959 345.853 84.3581 345.51 83.7277C345.726 82.5784 345.839 81.4323 347.031 80.5657C347.954 80.0533 348.826 79.5945 349.962 80.0627C351.343 80.6622 350.924 81.9906 350.633 82.9342Z" fill="#6D762C"/>
<path d="M341.405 75.2625C341.085 75.6702 340.423 75.4822 340.003 75.287C339.716 74.8453 339.861 74.3735 340.11 73.8986C341.059 73.0046 342.219 74.511 341.388 75.2803L341.405 75.2625Z" fill="#6D762C"/>
<path opacity="0.32" d="M347.933 82.1669L347.655 81.3614C347.995 81.8534 348.764 81.3976 347.933 82.1669Z" fill="white"/>
<path opacity="0.32" d="M350.829 85.4219L351.326 85.182L351.314 85.442L350.829 85.4219Z" fill="white"/>
<path opacity="0.32" d="M348.273 82.6587C348.637 82.6652 348.326 84.2328 349.14 83.4813C348.998 84.0916 347.918 83.8121 347.957 83.9841L348.288 83.3163C347.557 83.1649 347.714 83.9567 346.995 83.5799L347.014 82.8521C347.975 83.2563 347.543 83.2865 348.306 82.5885L348.238 82.6598L348.273 82.6587Z" fill="white"/>
<path opacity="0.32" d="M346.75 82.6697L346.585 83.7655C346.014 83.0206 347.112 82.5724 346.235 82.1137C346.708 82.3593 347.292 81.355 347.637 82.0892C347.128 82.5545 347.563 82.6281 346.75 82.6697Z" fill="white"/>
<path opacity="0.32" d="M349.939 86.6088L350.258 86.201L350.128 86.5512L349.939 86.6088Z" fill="white"/>
<path opacity="0.32" d="M349.06 86.5613L349.126 86.6328L349.45 86.3317L349.383 86.2602L349.06 86.5613Z" fill="white"/>
<path d="M324.782 66.7371C321.054 68.7875 317.05 67.0196 313.104 67.068C312.589 66.5119 312.956 65.9123 313.347 65.5717C315.024 64.7252 316.922 65.9845 318.662 64.8245C320.801 64.4837 323.06 64.122 325.08 65.395C325.367 65.8366 325.293 66.3755 324.782 66.7371Z" fill="#6D762C"/>
<path opacity="0.32" d="M346.374 88.9829C346.543 88.8047 346.916 89.1919 346.661 89.4245C346.414 89.1895 345.469 88.7675 346.396 88.3936L346.357 89.0007L346.374 88.9829Z" fill="white"/>
<path opacity="0.32" d="M345.845 90.0727C344.756 90.1571 346.094 89.5977 345.325 89.2744C345.824 89.1729 346.165 89.6649 345.845 90.0727Z" fill="white"/>
<path d="M326.799 78.5371C326.459 79.5688 325.04 79.5765 324.276 79.4954C325.157 78.6727 325.876 79.0495 326.37 78.7058L326.355 78.8274C326.666 78.7835 326.799 78.5371 326.675 78.4196C326.453 77.8029 325.882 78.5818 325.61 78.0185C326.175 77.742 325.577 77.3442 326.195 77.118C325.799 76.4373 324.918 77.26 324.483 77.1864C324.678 77.3711 323.564 78.6163 324.211 79.6705L323.042 80.0516C322.66 79.2492 323.871 79.1785 323.536 78.1842C324.176 77.3687 325.21 76.4202 326.444 76.6431C327.216 77.1049 327.181 77.8159 326.799 78.5371Z" fill="#6D762C"/>
<path opacity="0.35" d="M326.522 77.732C326.413 77.4929 326.249 77.1687 326.664 77.1218L326.522 77.732Z" fill="white"/>
<path d="M304.367 84.7816C303.506 86.5041 301.587 85.8341 300.3 86.34C301.077 85.5203 300.998 84.2934 302.039 83.6563C302.657 83.4301 303.34 83.0288 303.938 83.4265C304.533 83.6858 304.34 84.3495 304.367 84.7816Z" fill="#6D762C"/>
<path opacity="0.3" d="M303.815 84.8325C303.197 85.0587 302.137 85.679 301.886 86.0501C300.972 86.1986 301.821 84.7015 301.049 85.7634C301.125 85.3283 301.826 84.9438 301.587 84.3103C302.412 84.8224 303.001 84.0603 303.267 83.5676C303.983 83.8406 303.648 84.37 303.814 84.7979L303.815 84.8325Z" fill="white"/>
<path d="M292.834 88.433C292.06 89.3911 290.835 89.5835 289.637 89.4287C289.308 88.6767 290.001 87.9115 290.504 87.2039C291.229 87.1131 291.684 86.5627 292.507 86.9711C292.983 87.3551 293.012 87.891 292.817 88.4509L292.834 88.433Z" fill="#6D762C"/>
<path opacity="0.3" d="M291.855 87.233C291.71 87.7048 292.639 87.4347 292.133 88.0385L291.837 87.9607C291.903 87.7856 291.681 87.1689 292.044 87.1754C292.044 87.1754 291.923 87.1617 291.855 87.233Z" fill="white"/>
<path opacity="0.3" d="M290.808 87.6276C290.752 87.4388 290.95 87.0173 291.181 87.2702L290.826 87.6444L290.808 87.6276Z" fill="white"/>
<path opacity="0.3" d="M291.034 89.1616C291.439 87.9548 289.916 89.4893 290.028 88.3432L290.501 88.5888L290.516 88.4672C291.012 88.2273 291.285 88.7905 291.465 89.0968L291.05 89.1438L291.034 89.1616Z" fill="white"/>
<path d="M293.066 81.8467C292.49 82.3833 291.001 83.1722 290.614 82.1276C290.46 81.4396 291.223 80.7416 291.892 80.4619C292.391 80.3604 292.684 80.2997 293.104 80.495C293.58 80.879 293.317 81.4756 293.048 81.8299L293.066 81.8467Z" fill="#6D762C"/>
<path opacity="0.3" d="M291.748 80.9675C291.724 81.453 292.464 81.2405 292.697 81.5971L292.002 82.2585C292.6 81.1325 291.197 82.6461 291.002 81.6823C291.026 81.1968 291.333 81.0145 292.02 80.7516L291.783 81.0011L291.748 80.9675Z" fill="white"/>
</g>
</g>
</g>
<defs>
<clipPath id="clip0_365_40">
<rect width="71.4661" height="78.9251" fill="white" transform="translate(134.271 207.805) rotate(-106.361)"/>
</clipPath>
<clipPath id="clip1_365_40">
<rect width="115" height="65" fill="white" transform="translate(283.694 88.4277) rotate(-46.5068)"/>
</clipPath>
</defs>
</svg>
