<svg width="336" height="107" viewBox="0 0 336 107" fill="none" xmlns="http://www.w3.org/2000/svg">
<path d="M333.896 105.919L299.685 105.736L266.642 106.469L233.58 105.262L200.537 104.046L167.476 104.872L134.415 106.745L101.354 105.583L68.2928 104.367L35.2317 104.199L2.79002 105.071L2.99983 92.4512L3.6518 79.5336L3.70234 66.6084L0.427322 53.6908L3.59115 40.7732L5.37523 27.848L4.08139 14.9228L2.29228 2.06638L35.1942 2.84602L68.2551 2.15046L101.299 3.41164L134.36 3.12119L167.421 2.47913L200.464 3.15941L233.525 3.19763L266.586 0.858706L299.664 1.02686L334.813 0.99629L331.702 14.9152L335.278 27.8404L332.096 40.758L333.355 53.6755L329.678 66.6007L330.37 79.526L335.432 92.4283L333.896 105.919Z" fill="#ECEAE5"/>
</svg>
