<svg width="56" height="58" viewBox="0 0 56 58" fill="none" xmlns="http://www.w3.org/2000/svg">
<path d="M37.8358 23.5063H37.2141C36.3608 25.3592 35.3246 26.8343 34.1055 27.9314C32.8621 29.0286 31.3748 29.8331 29.6438 30.3451C31.3748 30.8571 32.8621 31.6617 34.1055 32.7589C35.3246 33.856 36.3608 35.331 37.2141 37.184H37.8358C36.9825 35.331 36.0316 33.8682 34.9832 32.7954C33.9348 31.6983 32.6792 30.8815 31.2164 30.3451C32.6792 29.7844 33.9348 28.9676 34.9832 27.8949C36.0316 26.8221 36.9825 25.3592 37.8358 23.5063ZM24.2312 23.5063H23.6095C22.7562 25.3592 21.72 26.8343 20.5009 27.9314C19.2575 29.0286 17.7703 29.8331 16.0392 30.3451C17.7703 30.8571 19.2575 31.6617 20.5009 32.7589C21.72 33.856 22.7562 35.331 23.6095 37.184H24.2312C23.1828 34.941 22.6587 32.6613 22.6587 30.3451C22.6587 28.029 23.1828 25.7493 24.2312 23.5063ZM27.7055 30.0526H22.2929V30.6377H27.7055V30.0526ZM34.5444 23.5063H33.9227C33.0693 25.3592 32.0331 26.8343 30.8141 27.9314C29.5707 29.0286 28.0834 29.8331 26.3524 30.3451C28.0834 30.8571 29.5707 31.6617 30.8141 32.7589C32.0331 33.856 33.0693 35.331 33.9227 37.184H34.5444C33.691 35.331 32.7402 33.8682 31.6918 32.7954C30.6434 31.6983 29.3878 30.8815 27.9249 30.3451C29.3878 29.7844 30.6434 28.9676 31.6918 27.8949C32.7402 26.8221 33.691 25.3592 34.5444 23.5063Z" fill="#B10A3A"/>
<circle cx="28" cy="29.1111" r="27" stroke="#B10A3A" stroke-width="2"/>
</svg>
