<svg width="56" height="57" viewBox="0 0 56 57" fill="none" xmlns="http://www.w3.org/2000/svg">
<circle cx="28" cy="28" r="27" transform="matrix(-1 0 0 1 56 0.111122)" stroke="#B10A3A" stroke-width="2"/>
<path d="M18 29H17V27H18V29ZM37.7071 27.2929C38.0976 27.6834 38.0976 28.3166 37.7071 28.7071L31.3431 35.0711C30.9526 35.4616 30.3195 35.4616 29.9289 35.0711C29.5384 34.6805 29.5384 34.0474 29.9289 33.6569L35.5858 28L29.9289 22.3431C29.5384 21.9526 29.5384 21.3195 29.9289 20.9289C30.3195 20.5384 30.9526 20.5384 31.3431 20.9289L37.7071 27.2929ZM18 27L37 27V29L18 29V27Z" fill="#B10A3A"/>
</svg>
