<svg width="1786" height="1247" viewBox="0 0 1786 1247" fill="none" xmlns="http://www.w3.org/2000/svg">
<path d="M1785 1C1747.5 20 1602.83 23.4654 1393.73 38.0149C1164 54 1006.53 55.1479 755.189 38.014C469.03 18.5061 314.102 -16.5069 167.073 61.5244C20.0439 139.556 9.71542 247.599 1.81717 295.118C-6.08108 342.637 41.3084 530.713 230.259 558.724C419.209 586.735 578.998 471.689 713.268 493.698C847.538 515.707 828.704 591.237 828.704 649.761C828.704 708.284 741.824 1032.41 828.704 1133.95C915.584 1235.5 1080.84 1246 1301.38 1246C1477.82 1246 1683.54 1158.46 1785 1120.95" stroke="#6D762C" stroke-width="2" stroke-dasharray="12 12"/>
</svg>
