<svg width="1481" height="389" viewBox="0 0 1481 389" fill="none" xmlns="http://www.w3.org/2000/svg">
<mask id="mask0_342_23" style="mask-type:alpha" maskUnits="userSpaceOnUse" x="0" y="0" width="1481" height="389">
<rect width="1481" height="389" fill="#D9D9D9"/>
</mask>
<g mask="url(#mask0_342_23)">
<path d="M75.607 201.572C80.0118 198.689 84.3296 197.164 88.5605 196.998C92.9432 196.733 96.8386 197.546 100.247 199.438C103.707 201.078 106.58 203.645 108.867 207.139C111.751 211.543 112.869 216.235 112.223 221.215C111.629 225.943 109.13 229.748 104.725 232.632C100.928 235.117 96.9169 236.116 92.6915 235.627C88.618 235.039 85.2888 232.77 82.7038 228.821C80.5165 225.479 79.5125 222.123 79.6919 218.751C79.9238 215.127 80.7315 211.887 82.115 209.028C79.8008 208.807 77.6301 209.469 75.6031 211.013C71.6015 213.849 68.6991 217.702 66.8959 222.57C64.9932 227.287 64.1193 232.416 64.2741 237.956C64.3294 243.344 65.1153 248.687 66.6315 253.987C68.1478 259.287 70.1488 263.835 72.6344 267.632L106.936 320.034C111.807 327.477 117.139 331.147 122.93 331.044C128.622 330.79 135.113 328.277 142.404 323.505L145.536 328.289C141.943 330.424 136.831 333.553 130.2 337.676C123.622 341.548 116.764 345.821 109.625 350.494C104.157 354.073 98.7883 357.804 93.5191 361.687C88.1505 365.418 84.073 368.304 81.2865 370.345L78.1547 365.561C84.0783 361.683 87.5096 357.81 88.4485 353.941C89.5392 349.972 87.9967 344.798 83.8209 338.419L36.9923 266.879C32.5182 260.044 28.0981 255.778 23.7319 254.079C19.2662 252.229 13.8437 253.392 7.46435 257.568L4.33251 252.783C9.49123 250.057 14.3489 247.203 18.9056 244.22C24.0698 240.84 28.7052 237.48 32.8117 234.141C36.9707 230.551 40.6008 226.981 43.702 223.433L60.8526 249.633C59.792 244.036 59.4384 238.192 59.7917 232.102C60.1451 226.013 61.6031 220.285 64.1658 214.919C66.629 209.401 70.4428 204.952 75.607 201.572Z" fill="#DEDBD4"/>
<path d="M170.869 149.349C185.104 142.098 198.449 140.7 210.904 145.154C223.358 149.608 234.323 161.136 243.798 179.739L160.086 222.376L157.252 218.013L215.73 188.229C211.854 180.22 207.5 173.27 202.666 167.38C197.75 161.327 192.725 157.061 187.592 154.583C182.458 152.104 177.384 152.142 172.37 154.696C165.414 158.239 161.243 165.049 159.856 175.126C158.549 184.96 161.449 198.253 168.556 215.006L169.901 215.848C170.893 218.196 172.008 220.785 173.247 223.618C174.404 226.288 175.641 228.918 176.959 231.506C182.644 242.667 189.121 251.185 196.391 257.057C203.66 262.93 211.033 266.407 218.511 267.488C225.906 268.407 232.434 267.425 238.096 264.541C242.463 262.317 246.339 259.528 249.724 256.174C253.189 252.576 255.957 248.212 258.03 243.082C260.02 237.79 260.988 231.49 260.934 224.184L266.776 223.653C267.636 230.142 267.403 237.085 266.078 244.483C264.753 251.881 261.801 258.885 257.222 265.495C252.561 271.944 246.025 277.31 237.613 281.594C226.29 287.362 215.145 289.88 204.18 289.15C193.131 288.258 182.912 284.193 173.522 276.956C164.131 269.719 156.1 259.549 149.426 246.446C142.093 232.049 138.177 218.56 137.678 205.98C137.178 193.4 139.775 182.298 145.468 172.676C151.24 162.809 159.707 155.033 170.869 149.349Z" fill="#DEDBD4"/>
<path d="M282.729 26.1673C287.798 24.1748 292.541 23.0906 296.958 22.9147C301.375 22.7387 305.536 23.1512 309.44 24.1521C312.603 25.2497 315.509 26.9357 318.158 29.2101C320.808 31.4846 322.797 34.3113 324.125 37.6903C325.785 41.9141 325.744 46.0266 324.001 50.0278C322.427 53.9626 319.443 56.7934 315.051 58.5202C310.658 60.247 306.41 60.3565 302.306 58.8488C298.202 57.341 295.221 54.2219 293.361 49.4912C291.833 45.6054 291.585 41.9968 292.616 38.6656C293.816 35.2679 296.076 32.3317 299.394 29.8568C298.356 28.7045 296.742 28.0712 294.551 27.957C292.294 27.6739 289.561 28.1632 286.351 29.4251C282.634 30.8863 279.722 32.9084 277.617 35.4916C275.68 38.0084 274.45 40.8328 273.926 43.9648C273.329 47.9054 273.955 53.2187 275.803 59.9044C277.753 66.3549 281.286 76.0847 286.4 89.0939L291.082 101.005L318.198 90.3453L320.191 95.4138L293.074 106.073L332.126 205.417C335.381 213.695 339.853 218.374 345.544 219.453C351.337 220.296 358.204 219.157 366.145 216.036L368.237 221.358C364.116 222.783 358.305 224.872 350.805 227.625C343.407 230.143 335.569 233.03 327.29 236.284C321.377 238.608 315.53 241.102 309.75 243.764C304.072 246.191 299.746 248.087 296.771 249.452L294.679 244.13C301.268 241.539 305.416 238.446 307.123 234.849C308.999 231.186 308.542 225.806 305.753 218.71L265.704 116.833L246.444 124.404L244.451 119.336L263.712 111.764C259.793 101.796 256.961 93.3515 255.216 86.4303C253.573 79.2738 252.835 72.9317 253.003 67.4041C253.105 61.7076 254.114 56.3367 256.032 51.2915C258.119 46.1798 261.401 41.3787 265.877 36.8881C270.523 32.3311 276.14 28.7575 282.729 26.1673Z" fill="#DEDBD4"/>
<path d="M401.524 60.6914C413.237 57.4149 424.324 56.9528 434.784 59.3049C445.244 61.6571 454.651 67.3199 463.005 76.2935C471.359 85.267 477.908 98.2328 482.651 115.191C487.395 132.149 488.524 146.631 486.038 158.636C483.504 170.467 478.376 180.101 470.654 187.539C462.884 194.802 453.142 200.072 441.429 203.349C429.89 206.576 418.828 207.126 408.242 204.998C397.607 202.694 388.137 197.143 379.832 188.345C371.653 179.322 365.192 166.332 360.448 149.374C355.705 132.416 354.488 117.959 356.799 106.002C359.284 93.9964 364.475 84.2502 372.372 76.7632C380.268 69.2763 389.985 63.919 401.524 60.6914ZM402.991 65.9362C393.9 68.4791 387.937 75.8023 385.102 87.9056C382.218 99.8341 384.053 117.512 390.606 140.938C397.159 164.365 404.762 180.429 413.417 189.129C422.022 197.655 430.871 200.647 439.962 198.104C448.878 195.61 454.802 188.486 457.735 176.733C460.794 164.755 459.047 147.053 452.494 123.627C445.941 100.2 438.25 84.1607 429.42 75.5087C420.717 66.633 411.907 63.4421 402.991 65.9362Z" fill="#DEDBD4"/>
<path d="M579.692 24.3374C584.893 23.52 589.456 23.9054 593.381 25.4937C597.485 27.0538 600.702 29.3966 603.031 32.5221C605.511 35.4401 607.075 38.9614 607.723 43.0861C608.54 48.2868 607.631 53.0239 604.995 57.2972C602.51 61.3631 598.667 63.8047 593.466 64.6221C588.983 65.3268 584.916 64.5878 581.265 62.4051C577.794 60.1943 575.692 56.7575 574.959 52.0948C574.339 48.1494 574.803 44.6767 576.353 41.6767C578.054 38.4691 580.123 35.8469 582.559 33.8101C580.541 32.6572 578.29 32.3678 575.807 32.9418C570.994 33.8821 566.764 36.2008 563.118 39.8978C559.445 43.4154 556.54 47.7311 554.403 52.8448C552.238 57.7791 550.758 62.9735 549.961 68.4278C549.164 73.8822 549.119 78.8511 549.823 83.3345L559.547 145.205C560.929 153.992 564.28 159.53 569.601 161.818C574.894 163.926 581.845 164.304 590.453 162.951L591.34 168.6C587.188 169.069 581.241 169.819 573.502 170.852C565.913 171.677 557.905 172.752 549.476 174.077C543.02 175.092 536.592 176.286 530.192 177.659C523.765 178.853 518.861 179.808 515.482 180.522L514.594 174.873C521.588 173.774 526.308 171.654 528.755 168.513C531.381 165.344 532.102 159.993 530.918 152.461L517.642 67.9945C516.374 59.9245 514.099 54.2178 510.817 50.8746C507.507 47.352 502.086 46.1826 494.554 47.3665L493.666 41.7174C499.489 41.3535 505.091 40.7487 510.471 39.9031C516.568 38.9448 522.175 37.7879 527.291 36.4325C532.558 34.8696 537.335 33.1081 541.621 31.1481L546.483 62.0833C547.818 56.5444 549.898 51.072 552.723 45.6663C555.549 40.2605 559.233 35.6387 563.775 31.8008C568.289 27.7835 573.595 25.2957 579.692 24.3374Z" fill="#DEDBD4"/>
<path d="M726.173 14.5423C733.072 14.5422 738.881 15.5405 743.601 17.5372C748.321 19.3525 752.133 21.8939 755.038 25.1615C758.306 28.6106 760.575 33.2397 761.846 39.0488C763.117 44.6764 763.752 51.847 763.753 60.5608L763.755 133.538C763.755 141.163 765.207 146.337 768.112 149.06C771.016 151.782 775.918 153.144 782.816 153.144L782.817 158.862C779.73 158.681 774.92 158.499 768.384 158.318C762.031 157.955 755.768 157.774 749.595 157.774C743.423 157.774 737.342 157.956 731.351 158.319C725.542 158.501 721.094 158.682 718.008 158.864L718.008 153.145C723.999 153.145 728.174 151.784 730.534 149.06C733.075 146.337 734.346 141.164 734.346 133.539L734.344 52.937C734.343 47.6725 733.98 42.9525 733.254 38.7772C732.528 34.4204 730.803 30.9712 728.08 28.4298C725.538 25.7068 721.454 24.3454 715.826 24.3456C709.472 24.3457 703.754 26.252 698.671 30.0644C693.77 33.8768 689.776 39.1415 686.69 45.8584C683.786 52.3937 682.334 59.746 682.334 67.9151L682.336 133.54C682.336 141.165 683.607 146.339 686.148 149.062C688.69 151.785 692.865 153.146 698.674 153.146L698.675 158.864C695.77 158.683 691.413 158.501 685.604 158.32C679.795 157.957 673.804 157.776 667.632 157.776C661.46 157.776 655.015 157.958 648.298 158.321C641.581 158.503 636.589 158.684 633.322 158.866L633.321 153.148C640.401 153.147 645.393 151.786 648.298 149.063C651.384 146.34 652.927 141.166 652.927 133.541L652.925 48.0377C652.924 39.8686 651.563 33.8779 648.839 30.0657C646.116 26.072 640.942 24.0752 633.318 24.0754L633.318 18.3571C639.127 18.9015 644.755 19.1737 650.201 19.1735C656.373 19.1734 662.091 18.9009 667.356 18.3562C672.802 17.6299 677.794 16.6313 682.333 15.3604L682.333 45.0416C687.053 34.1493 693.316 26.3431 701.122 21.6229C709.109 16.9028 717.46 14.5426 726.173 14.5423ZM808.137 14.5402C815.035 14.54 820.845 15.5383 825.565 17.5351C830.285 19.3503 834.097 21.8917 837.002 25.1593C840.269 28.6084 842.539 33.2375 843.809 39.0466C845.08 44.6742 845.716 51.8449 845.716 60.5586L845.718 133.536C845.718 141.161 847.171 146.334 850.075 149.057C853.162 151.78 858.245 153.142 865.325 153.142L865.325 158.86C862.239 158.678 857.428 158.497 850.893 158.316C844.357 157.953 837.913 157.771 831.559 157.772C825.387 157.772 819.305 157.953 813.315 158.317C807.505 158.498 803.058 158.68 799.972 158.862L799.972 153.143C805.962 153.143 810.138 151.781 812.497 149.058C815.039 146.335 816.309 141.161 816.309 133.537L816.307 52.9349C816.307 47.6703 815.944 42.9504 815.218 38.7751C814.491 34.4182 812.767 30.9691 810.044 28.4277C807.32 25.7047 803.054 24.3433 797.245 24.3434C790.891 24.3436 785.173 26.3406 780.09 30.3346C775.189 34.147 771.195 39.4116 768.109 46.1285C765.205 52.6639 763.753 60.0162 763.753 68.1853L762.663 45.5841C767.564 33.6026 774.099 25.4333 782.268 21.0762C790.619 16.7191 799.242 14.5404 808.137 14.5402Z" fill="#DEDBD4"/>
<path d="M906.117 172.473C898.591 171.249 892.374 168.765 887.465 165.024C882.556 161.282 879.166 156.684 877.295 151.23C875.424 145.775 875.013 139.823 876.063 133.372C877.346 125.488 880.173 119.419 884.544 115.165C888.945 110.731 894.17 107.443 900.22 105.301C906.449 103.188 912.86 101.656 919.452 100.706C926.253 99.6059 932.576 98.6118 938.422 97.724C944.477 96.6863 949.5 95.2047 953.492 93.2795C957.663 91.3834 960.083 88.3748 960.754 84.2537L963.729 65.9775C964.778 59.527 964.535 54.2455 962.997 50.1328C961.667 45.8701 959.342 42.6408 956.021 40.4449C952.879 38.2783 948.889 36.8012 944.051 36.0139C939.93 35.3431 935.438 35.2558 930.576 35.7519C925.742 36.0687 921.704 37.7106 918.462 40.6776C922.229 42.3942 925.105 45.0693 927.088 48.7028C929.28 52.1862 929.997 56.2573 929.239 60.9159C928.422 65.9329 926.079 69.5978 922.208 71.9106C918.516 74.2525 914.161 75.0152 909.144 74.1987C903.59 73.2947 899.746 70.9218 897.612 67.0799C895.508 63.0589 894.835 58.7191 895.593 54.0605C896.38 49.2227 898.186 45.4703 901.012 42.8034C904.016 40.1656 907.708 37.8236 912.087 35.7775C916.854 33.6106 922.712 32.0811 929.663 31.1891C936.792 30.3263 944.478 30.5656 952.72 31.9071C960.425 33.161 966.909 35.1359 972.172 37.8317C977.643 40.3775 981.954 43.838 985.104 48.2131C988.913 53.0633 991.024 58.7406 991.437 65.2452C991.878 71.5705 991.385 79.1231 989.956 87.9028L977.883 162.083C977.154 166.562 977.167 169.875 977.921 172.021C978.884 174.017 980.709 175.233 983.396 175.671C985.188 175.962 986.963 175.792 988.722 175.158C990.659 174.554 992.938 173.545 995.559 172.133L997.503 177.139C993.245 179.573 988.999 181.365 984.765 182.515C980.711 183.694 975.727 183.803 969.815 182.841C964.081 181.907 959.568 180.253 956.276 177.878C952.984 175.503 950.719 172.468 949.482 168.772C948.423 165.105 948.302 160.763 949.119 155.746C943.235 162.513 936.747 167.343 929.655 170.235C922.563 173.127 914.717 173.873 906.117 172.473ZM921.117 161.672C926.134 162.489 931.026 161.814 935.793 159.647C940.739 157.509 945.56 153.879 950.256 148.758L958.961 95.2732C956.523 97.8192 953.248 99.8611 949.135 101.399C945.052 102.757 940.685 104.162 936.035 105.612C931.384 107.062 926.855 108.9 922.447 111.125C918.246 113.201 914.542 116.184 911.334 120.076C908.125 123.968 905.982 129.229 904.903 135.859C903.765 142.847 904.653 148.693 907.566 153.397C910.508 157.922 915.025 160.681 921.117 161.672Z" fill="#DEDBD4"/>
<path d="M1092.39 20.457L1080.75 64.135L1117.06 73.8118L1115.66 79.0742L1079.35 69.3975L1051.79 172.804C1049.87 179.996 1049.83 185.433 1051.67 189.117C1053.5 192.8 1056.88 195.296 1061.79 196.605C1066.35 197.82 1070.88 197.054 1075.37 194.305C1080.03 191.603 1084.85 186.217 1089.82 178.148L1094.32 181.322C1089.74 190.058 1083.87 196.947 1076.7 201.988C1069.75 206.9 1061.11 207.977 1050.76 205.219C1044.79 203.63 1040 201.508 1036.39 198.854C1032.73 196.376 1029.78 193.336 1027.55 189.734C1024.76 184.671 1023.42 179.146 1023.51 173.159C1023.6 167.172 1024.89 159.53 1027.37 150.233L1050.93 61.8243L1026.72 55.3731L1028.12 50.1107L1052.33 56.5619L1062.57 18.1463C1068.05 19.42 1073.26 20.3372 1078.18 20.8977C1083.15 21.2828 1087.89 21.1359 1092.39 20.457Z" fill="#DEDBD4"/>
<path d="M1189.09 25.8203C1194.4 27.6757 1198.26 30.9457 1200.66 35.6302C1203.12 40.1434 1203.49 44.8851 1201.75 49.8553C1200.02 54.8256 1196.75 58.3961 1191.95 60.567C1187.22 62.5665 1182.19 62.6385 1176.88 60.7832C1171.57 58.9278 1167.68 55.7435 1165.22 51.2303C1162.82 46.5458 1162.48 41.7184 1164.22 36.7482C1165.95 31.7779 1169.19 28.2931 1173.93 26.2936C1178.72 24.1227 1183.78 23.965 1189.09 25.8203ZM1182.88 93.1631L1143.92 204.736C1141.4 211.934 1141.07 217.297 1142.91 220.826C1144.93 224.414 1149.28 227.375 1155.96 229.709L1154.08 235.108C1151.22 233.919 1146.74 232.162 1140.63 229.836C1134.75 227.398 1128.64 225.072 1122.3 222.858C1116.3 220.763 1110.07 218.78 1103.61 216.908C1097.21 214.865 1092.44 213.39 1089.29 212.485L1091.18 207.086C1097.86 209.42 1103.02 209.781 1106.66 208.167C1110.48 206.614 1113.64 202.238 1116.15 195.04L1144.34 114.317C1147.03 106.605 1147.72 100.5 1146.41 96.003C1145.16 91.3348 1140.93 87.7438 1133.73 85.2301L1135.62 79.8314C1140.92 82.2608 1146.15 84.3732 1151.29 86.1687C1157.11 88.2036 1162.6 89.8318 1167.75 91.0533C1173.13 92.1633 1178.18 92.8665 1182.88 93.1631Z" fill="#DEDBD4"/>
<path d="M1286.01 135.233C1297.05 140.35 1305.78 147.199 1312.2 155.782C1318.63 164.364 1322.1 174.78 1322.63 187.029C1323.15 199.278 1319.71 213.39 1312.3 229.365C1304.89 245.34 1296.35 257.085 1286.66 264.599C1277.05 271.948 1266.89 275.943 1256.19 276.584C1245.56 277.059 1234.73 274.739 1223.7 269.623C1212.83 264.582 1204.06 257.815 1197.39 249.321C1190.8 240.662 1187.21 230.291 1186.61 218.207C1186.25 206.034 1189.77 191.96 1197.18 175.985C1204.59 160.01 1213.05 148.227 1222.58 140.637C1232.26 133.122 1242.54 129.083 1253.41 128.519C1264.28 127.955 1275.14 130.193 1286.01 135.233ZM1283.72 140.174C1275.16 136.203 1265.87 137.898 1255.85 145.26C1245.91 152.457 1235.82 167.089 1225.59 189.158C1215.36 211.227 1210.71 228.38 1211.64 240.617C1212.64 252.689 1217.43 260.711 1225.99 264.682C1234.39 268.576 1243.52 267.008 1253.39 259.976C1263.49 252.855 1273.66 238.261 1283.89 216.192C1294.13 194.123 1298.7 176.932 1297.6 164.619C1296.75 152.217 1292.12 144.069 1283.72 140.174Z" fill="#DEDBD4"/>
<path d="M1453.41 229.14C1459.53 233.052 1463.96 237.071 1466.71 241.199C1469.71 245.271 1471.63 249.515 1472.47 253.93C1473.36 258.597 1472.88 263.566 1471.02 268.839C1469.31 274.21 1465.96 280.795 1460.97 288.595L1421.65 350.076C1417.54 356.5 1415.98 361.641 1416.96 365.5C1418.09 369.457 1421.64 373.342 1427.61 377.156L1424.53 381.974C1422.02 380.158 1418.07 377.414 1412.66 373.74C1407.35 369.913 1402.02 366.288 1396.67 362.865C1391.47 359.54 1386.17 356.368 1380.77 353.349C1375.63 350.274 1371.71 347.982 1369.01 346.472L1372.09 341.655C1377.29 344.98 1381.69 346.18 1385.3 345.255C1388.91 344.33 1392.77 340.656 1396.88 334.233L1440.3 266.328C1443.14 261.892 1445.3 257.671 1446.78 253.665C1448.36 249.505 1448.62 245.573 1447.54 241.867C1446.56 238.008 1443.62 234.513 1438.73 231.384C1433.07 227.765 1426.99 226.144 1420.51 226.519C1414.17 226.993 1407.89 229.227 1401.67 233.223C1395.71 237.164 1390.52 242.576 1386.12 249.458L1350.77 304.746C1346.66 311.169 1344.94 316.213 1345.61 319.876C1346.44 323.637 1349.38 327.131 1354.43 330.359L1351.35 335.176C1349 333.459 1345.35 330.91 1340.4 327.529C1335.7 324.094 1330.67 320.665 1325.32 317.242C1320.12 313.916 1314.59 310.597 1308.74 307.285C1302.98 303.819 1298.68 301.282 1295.83 299.675L1298.91 294.857C1304.87 298.672 1309.81 300.214 1313.73 299.485C1317.79 298.853 1321.88 295.326 1325.99 288.902L1372.05 216.868C1376.45 209.986 1378.53 204.205 1378.29 199.526C1378.15 194.695 1374.87 190.225 1368.44 186.117L1371.53 181.3C1376.13 184.888 1380.72 188.149 1385.31 191.083C1390.51 194.409 1395.47 197.26 1400.2 199.637C1405.18 201.96 1409.92 203.808 1414.43 205.182L1398.44 230.188C1408.48 223.249 1418.17 220.068 1427.49 220.645C1436.97 221.32 1445.61 224.152 1453.41 229.14Z" fill="#DEDBD4"/>
</g>
</svg>
