<svg width="30" height="30" viewBox="0 0 30 30" fill="none" xmlns="http://www.w3.org/2000/svg">
<path d="M8.82102 0C3.97905 0 0 3.97372 0 8.82102V21.179C0 26.021 3.97372 30 8.82102 30H21.179C26.021 30 30 26.0263 30 21.179V8.82102C30 3.97905 26.0263 0 21.179 0H8.82102ZM8.82102 2.72727H21.179C24.5508 2.72727 27.2727 5.44922 27.2727 8.82102V21.179C27.2727 24.5508 24.5508 27.2727 21.179 27.2727H8.82102C5.44922 27.2727 2.72727 24.5508 2.72727 21.179V8.82102C2.72727 5.44922 5.44922 2.72727 8.82102 2.72727ZM23.054 5.71023C22.3668 5.71023 21.8182 6.25888 21.8182 6.94602C21.8182 7.63317 22.3668 8.18182 23.054 8.18182C23.7411 8.18182 24.2898 7.63317 24.2898 6.94602C24.2898 6.25888 23.7411 5.71023 23.054 5.71023ZM15 6.81818C10.4989 6.81818 6.81818 10.4989 6.81818 15C6.81818 19.5011 10.4989 23.1818 15 23.1818C19.5011 23.1818 23.1818 19.5011 23.1818 15C23.1818 10.4989 19.5011 6.81818 15 6.81818ZM15 9.54545C18.0309 9.54545 20.4545 11.9691 20.4545 15C20.4545 18.0309 18.0309 20.4545 15 20.4545C11.9691 20.4545 9.54545 18.0309 9.54545 15C9.54545 11.9691 11.9691 9.54545 15 9.54545Z" fill="#B10A3A"/>
</svg>
