<svg width="30" height="30" viewBox="0 0 30 30" fill="none" xmlns="http://www.w3.org/2000/svg">
<g clip-path="url(#clip0_383_66)">
<path fill-rule="evenodd" clip-rule="evenodd" d="M14.814 0C6.59851 0 0 6.65197 0 14.9377C0 21.0878 3.61051 26.2341 8.83951 28.6194C8.83951 25.8181 8.81999 26.1792 10.9545 17.0706C9.78149 14.7034 10.6935 10.7952 13.32 10.7952C16.965 10.7952 14.4885 16.1993 14.067 18.3259C13.6935 19.958 14.9385 21.2139 16.4325 21.2139C19.296 21.2139 21.162 17.5728 21.162 13.3059C21.162 10.0418 18.9225 7.65674 15.063 7.65674C8.20051 7.65674 6.46051 15.2993 8.83951 17.6982C9.43801 18.6043 8.83951 18.6467 8.83951 19.8325C8.42401 21.0864 5.1045 19.2638 5.1045 14.5613C5.1045 10.2928 8.5905 5.27271 15.6855 5.27271C21.2865 5.27271 25.0215 9.41438 25.0215 13.8083C25.0215 19.7073 21.7845 23.9758 17.055 23.9758C15.4365 23.9758 13.9425 23.0964 13.4445 22.092C12.54 25.6102 12.357 27.3939 10.9545 29.3723C12.324 29.7489 13.6935 30 15.1875 30C23.403 30 30 23.348 30 15.0637C29.628 6.65241 23.0295 0 14.814 0Z" fill="#B10A3A"/>
</g>
<defs>
<clipPath id="clip0_383_66">
<rect width="30" height="30" fill="white"/>
</clipPath>
</defs>
</svg>
