<svg width="30" height="26" viewBox="0 0 30 26" fill="none" xmlns="http://www.w3.org/2000/svg">
<path d="M15 0C10.655 0 6.8149 0.500488 4.47115 0.880859C2.53305 1.19617 0.969051 2.81775 0.612981 4.96484C0.310997 6.79163 0 9.46423 0 12.8125C0 16.1608 0.310997 18.8334 0.612981 20.6602C0.969051 22.8073 2.53305 24.4338 4.47115 24.7441C6.82392 25.1245 10.6776 25.625 15 25.625C19.3224 25.625 23.1761 25.1245 25.5288 24.7441C27.4669 24.4338 29.0309 22.8073 29.387 20.6602C29.689 18.8284 30 16.1508 30 12.8125C30 9.47424 29.6935 6.79663 29.387 4.96484C29.0309 2.81775 27.4669 1.19617 25.5288 0.880859C23.1851 0.500488 19.345 0 15 0ZM15 2.5625C19.1917 2.5625 22.9372 3.03796 25.2043 3.40332C26.1779 3.56348 26.9396 4.37927 27.1154 5.44531C27.3948 7.13696 27.6923 9.64441 27.6923 12.8125C27.6923 15.9756 27.3948 18.488 27.1154 20.1797C26.9396 21.2457 26.1824 22.0665 25.2043 22.2217C22.9282 22.587 19.1647 23.0625 15 23.0625C10.8353 23.0625 7.06731 22.587 4.79567 22.2217C3.82212 22.0665 3.0604 21.2457 2.88462 20.1797C2.60517 18.488 2.30769 15.9856 2.30769 12.8125C2.30769 9.6344 2.60517 7.13696 2.88462 5.44531C3.0604 4.37927 3.81761 3.56348 4.79567 3.40332C7.05829 3.03796 10.8083 2.5625 15 2.5625ZM11.5385 5.48535V20.1397L13.2692 19.0586L21.3462 13.9336L23.0769 12.8125L21.3462 11.6914L13.2692 6.56641L11.5385 5.48535ZM13.8462 9.88965L18.4255 12.8125L13.8462 15.7354V9.88965Z" fill="#B10A3A"/>
</svg>
