<svg width="30" height="30" viewBox="0 0 30 30" fill="none" xmlns="http://www.w3.org/2000/svg">
<g clip-path="url(#clip0_383_60)">
<path d="M7.50927 13.1143C5.43001 13.1143 3.74902 14.7952 3.74902 16.8687C3.74902 18.9421 5.43001 20.623 7.50342 20.623C9.57683 20.623 11.2578 18.9421 11.2578 16.8687C11.2637 14.7952 9.58268 13.1143 7.50927 13.1143ZM7.50927 19.5571C6.02743 19.5571 4.82087 18.3564 4.82087 16.8687C4.82087 15.381 6.02157 14.1802 7.50927 14.1802C8.99697 14.1802 10.1918 15.3868 10.1918 16.8687C10.1918 18.3505 8.99112 19.5571 7.50927 19.5571Z" fill="#B10A3A"/>
<path d="M7.52075 18.731C8.55265 18.731 9.38917 17.8944 9.38917 16.8626C9.38917 15.8307 8.55265 14.9941 7.52075 14.9941C6.48886 14.9941 5.65234 15.8307 5.65234 16.8626C5.65234 17.8944 6.48886 18.731 7.52075 18.731Z" fill="#B10A3A"/>
<path d="M22.5034 13.1143C20.43 13.1143 18.749 14.7952 18.749 16.8687C18.749 18.9421 20.43 20.623 22.5034 20.623C24.5768 20.623 26.2578 18.9421 26.2578 16.8687C26.2578 14.7952 24.5768 13.1143 22.5034 13.1143ZM22.5034 19.5571C21.0216 19.5571 19.815 18.3564 19.815 16.8687C19.815 15.381 21.0157 14.1802 22.5034 14.1802C23.9911 14.1802 25.186 15.3868 25.186 16.8687C25.186 18.3505 23.9853 19.5571 22.5034 19.5571Z" fill="#B10A3A"/>
<path d="M22.5149 18.731C23.5468 18.731 24.3833 17.8944 24.3833 16.8626C24.3833 15.8307 23.5468 14.9941 22.5149 14.9941C21.483 14.9941 20.6465 15.8307 20.6465 16.8626C20.6465 17.8944 21.483 18.731 22.5149 18.731Z" fill="#B10A3A"/>
<path d="M27.786 11.5504L29.9941 9.35987H25.5193C23.0125 7.3216 18.8481 5.62305 14.9883 5.62305C11.1226 5.62305 6.99336 7.3216 4.48653 9.35987H0L2.20812 11.5504C0.843421 12.9093 0 14.7894 0 16.8687C0 21.0155 3.36197 24.3774 7.50879 24.3774C9.41234 24.3774 11.1519 23.6687 12.4756 22.4973L15.0176 24.3657L17.5303 22.5383L17.501 22.468C18.8305 23.6512 20.5759 24.3716 22.4971 24.3716C26.6439 24.3716 30.0059 21.0096 30.0059 16.8628C30 14.7894 29.1507 12.9093 27.786 11.5504ZM21.5541 9.41844C17.9988 9.86358 15.2109 12.7921 15 16.4177C14.7833 12.7863 11.9895 9.85186 8.42249 9.41844C10.2148 8.12988 12.499 7.49731 14.9883 7.49731C17.4775 7.49731 19.7618 8.12988 21.5541 9.41844ZM7.50879 22.5032C4.39282 22.5032 1.87427 19.9788 1.87427 16.8687C1.87427 13.7585 4.39867 11.2341 7.50879 11.2341C10.6189 11.2341 13.1433 13.7585 13.1433 16.8687C13.1374 19.9788 10.6189 22.5032 7.50879 22.5032ZM22.5029 22.5032C19.3928 22.5032 16.8684 19.9788 16.8684 16.8687C16.8684 13.7585 19.3928 11.2341 22.5029 11.2341C25.613 11.2341 28.1374 13.7585 28.1374 16.8687C28.1316 19.9788 25.613 22.5032 22.5029 22.5032Z" fill="#B10A3A"/>
</g>
<defs>
<clipPath id="clip0_383_60">
<rect width="30" height="30" fill="white"/>
</clipPath>
</defs>
</svg>
