<svg width="172" height="188" viewBox="0 0 172 188" fill="none" xmlns="http://www.w3.org/2000/svg">
<g clip-path="url(#clip0_135_2903)">
<g opacity="0.8">
<path d="M123.327 156.33C122.583 155.963 121.732 155.555 121.282 154.892C121.255 154.229 122.084 154.383 122.215 154.497C123.48 152.444 122.751 150.112 124.621 148.485C124.245 148.388 123.894 148.363 123.551 148.165C123.737 146.39 122.901 144.789 122.801 143.136C121.05 142.599 121.874 140.725 120.452 139.957L119.823 140.474C118.98 139.893 118.506 138.735 117.883 138.064C118.568 136.672 118.101 135.341 117.642 133.837C116.981 133.258 116.087 132.365 115.735 131.917C115.956 132.251 115.901 132.521 115.713 132.859C114.698 133.284 114.412 131.788 113.284 131.921C113.071 133.034 114.236 134.405 112.576 135.102C112.019 133.974 112.362 131.961 111.486 131.48C111.723 132.059 111.649 132.69 111.545 133.239C109.934 133.234 110.111 131.04 109.627 129.887C108.94 128.645 110.009 126.753 108.486 125.954C107.67 130.289 107.02 134.805 107.558 139.327C107.628 144.138 109.421 148.823 111.184 152.836C113.601 156.571 118.024 154.973 121.249 156.589C122.003 157.374 122.575 156.113 123.341 156.31L123.327 156.33Z" fill="#6D762C"/>
<path opacity="0.3" d="M113.91 151.699C113.681 151.37 113.332 151.936 113.713 152.042L113.91 151.699Z" fill="white"/>
<path opacity="0.3" d="M112.585 150.555C111.752 150.392 112.177 151.406 112.152 151.757L112.37 151.077L113.352 151.599C113.313 151.1 112.395 151.149 112.581 150.57L112.585 150.555Z" fill="white"/>
<path opacity="0.3" d="M113.409 150.724L113.164 150.741C113.271 150.783 113.36 151.003 113.409 150.724Z" fill="white"/>
<path opacity="0.3" d="M112.754 148.535C112.868 148.403 112.589 148.354 112.458 148.24C112.589 148.354 112.539 148.633 112.754 148.535Z" fill="white"/>
<path opacity="0.3" d="M111.748 148.363C111.432 148.406 111.437 148.838 111.644 148.913C111.825 148.747 111.872 148.65 111.748 148.363Z" fill="white"/>
<path opacity="0.3" d="M110.316 148.798L110.351 149.288L110.499 149.224L110.316 148.798Z" fill="white"/>
<path opacity="0.3" d="M111.043 144.243C110.724 143.693 111.075 143.718 110.33 143.352C111.134 143.434 110.355 144.621 111.107 144.391C111.072 144.324 111.124 144.213 111.043 144.243Z" fill="white"/>
<path opacity="0.3" d="M111.768 143.35L111.916 143.709L111.874 143.392L111.768 143.35Z" fill="white"/>
<path d="M156.175 117.676C156.061 118.23 156.372 118.952 155.971 119.207C156.854 119.091 156.713 118.136 156.175 117.676Z" fill="#6D762C"/>
<path d="M155.339 117.695C155.643 117.816 155.742 118.032 155.871 117.554C155.08 117.285 154.377 118.432 155.151 118.88C155.265 118.326 154.612 117.997 155.33 117.7L155.339 117.695Z" fill="#6D762C"/>
<path d="M127.971 127.133C127.814 124.313 125.596 123.291 124.605 120.731C123.583 121.329 123.667 122.736 122.143 121.937C121.661 121.798 122.257 121.383 121.986 121.16C121.797 121.921 120.684 121.285 120.041 121.374C119.876 120.771 119.861 119.92 119.458 119.583C118.634 119.838 118.953 122.43 117.61 121.042L117.316 119.719C116.222 120.342 118.208 122.064 116.828 122.81L115.413 121.87C115.477 122.441 116.731 123.186 115.751 123.678C114.776 124.18 115.145 122.829 114.287 123.017C114.027 124.227 116.537 125.558 114.699 126.238C114.078 126.581 113.953 124.857 113.764 126.042C115.533 126.824 114.078 128.624 115.927 129.377C117.834 129.677 117.151 132.083 119.389 131.572C120.012 132.666 121.351 131.602 122.078 131.724C123.056 128.598 125.219 131.51 126.934 129.346C127.776 128.914 127.734 127.823 127.962 127.138L127.971 127.133Z" fill="#6D762C"/>
<path opacity="0.3" d="M119.493 129.405L119.354 129.464L119.142 128.958L119.281 128.9L119.493 129.405Z" fill="white"/>
<path opacity="0.3" d="M117.194 129.184C116.95 129.202 117.187 129.358 117.212 129.429C117.36 129.365 117.219 129.256 117.194 129.184Z" fill="white"/>
<path opacity="0.3" d="M117.841 128.49L118.036 128.752L118.209 128.336L117.841 128.49Z" fill="white"/>
<path opacity="0.3" d="M118.127 127.943C117.89 127.787 117.882 127.96 117.793 128.163C117.941 128.099 118.11 128.121 118.127 127.943Z" fill="white"/>
<path opacity="0.3" d="M117.094 127.109C116.154 126.481 116.871 127.804 116.111 128.207C116.309 127.863 116.856 128.15 116.831 128.501C116.779 128.189 116.799 127.406 117.099 127.119L117.094 127.109Z" fill="white"/>
<path opacity="0.3" d="M124.656 124.705C124.584 125.153 124.322 124.925 124.107 125.024C124.542 125.259 124.696 125.205 124.656 124.705Z" fill="white"/>
<path opacity="0.3" d="M116.361 128.598C116.326 128.531 116.272 128.378 116.17 128.345C116.23 128.484 116.252 128.739 116.361 128.598Z" fill="white"/>
<path opacity="0.3" d="M115.508 128.372L115.866 128.647L115.646 128.313L115.508 128.372Z" fill="white"/>
<path opacity="0.3" d="M118.053 126.954C118.046 127.127 117.457 127.369 117.873 127.542C117.856 127.297 118.054 127.377 118.053 126.954Z" fill="white"/>
<path opacity="0.3" d="M117.413 126.461L117.601 126.896L117.65 126.617L117.413 126.461Z" fill="white"/>
<path opacity="0.3" d="M123.618 123.439C123.412 124.378 123.207 122.852 123.103 123.824C123.578 124.136 123.61 123.612 123.618 123.439Z" fill="white"/>
<path opacity="0.3" d="M116.423 126.535C116.49 126.078 116.651 125.85 117.035 125.773C116.545 126.231 115.704 126.241 115.81 126.706C115.931 126.595 116.132 126.54 116.414 126.54L116.423 126.535Z" fill="white"/>
<path opacity="0.3" d="M114.878 126.678L115.221 126.876L115.017 126.619L114.878 126.678Z" fill="white"/>
<path opacity="0.3" d="M122.644 123.333L122.574 123.362L122.213 122.5L122.282 122.471L122.644 123.333Z" fill="white"/>
<path opacity="0.3" d="M116.526 124.549C116.101 124.732 116.264 124.744 115.898 125.066L115.913 124.296L115.871 124.402L115.545 124.026C115.522 124.969 116.202 125.187 116.887 125.415C116.413 125.103 116.724 124.628 116.526 124.549Z" fill="white"/>
<path opacity="0.3" d="M117.486 124.394C117.313 124.386 117.224 124.589 117.191 124.69C116.692 124.73 117.05 124.158 116.979 124.183C116.365 124.354 117.199 124.517 116.929 124.885C117.11 124.72 117.812 124.77 117.486 124.394Z" fill="white"/>
<path opacity="0.3" d="M118.317 123.543C118.352 124.033 117.637 123.748 118.099 124.223C118.156 123.771 118.631 123.659 118.317 123.543Z" fill="white"/>
<path opacity="0.3" d="M116.942 123.102C117.311 123.795 116.094 123.708 117.083 124.057C117.239 123.82 117.533 123.1 116.942 123.102Z" fill="white"/>
<path opacity="0.3" d="M117.533 122.677L117.614 123.07L117.647 122.969L117.533 122.677Z" fill="white"/>
<path opacity="0.3" d="M116.681 123.287L116.611 123.316L116.458 122.949L116.527 122.92L116.681 123.287Z" fill="white"/>
<path d="M150.457 108.277C150.316 107.745 149.918 107.394 149.508 107.23C149.589 107.624 150.341 107.394 150.089 108.007L149.78 107.876C149.265 108.685 150.719 108.505 149.74 108.997C149.267 109.276 149.059 108.779 148.716 108.581C148.503 108.074 148.484 106.814 149.157 107.206L148.362 107.119C147.937 107.724 148.471 108.598 148.869 108.949C149.542 109.34 150.561 109.348 150.457 108.277Z" fill="#6D762C"/>
<path d="M107.454 118.073L107.656 118.162L107.778 117.857L107.454 118.073Z" fill="#6D762C"/>
<path d="M106.543 117.526C106.699 117.288 106.314 117.197 106.264 117.053C106.323 117.192 106.405 117.585 106.543 117.526Z" fill="#6D762C"/>
<path d="M119.999 109.334C119.705 108.011 120.159 106.472 118.737 105.705C117.899 103.513 115.904 101.373 113.693 101.374C111.987 98.5291 113.826 94.6097 111.69 91.9376C110.292 92.4392 109.709 91.0712 108.378 91.1153C108.06 90.5662 107.822 89.9873 107.209 89.7348C106.949 90.5213 108.93 91.8108 107.693 92.5075L106.776 90.5137C106.679 90.8897 107.226 91.5996 107.228 92.1908C106.426 93.1229 105.232 92.0936 104.896 91.2996C104.356 92.0364 105.444 92.6007 105.716 93.2465C105.028 94.0475 104.89 92.4869 104.088 92.996C104.985 91.0967 104.478 89.2663 103.071 87.7299C101.976 87.3387 100.967 85.7304 99.7577 86.3164C99.2258 86.8801 99.7445 88.0998 98.6711 87.9631C97.363 87.4879 96.8137 86.9607 96.1983 85.694C95.5677 85.1965 95.3573 86.1266 95.1345 86.3984C95.169 86.8882 95.2256 87.6326 94.884 88.0259C94.7757 86.5467 93.5565 85.4455 92.412 84.5598C91.6848 84.8614 91.2784 86.3033 91.3992 87.196C91.6634 88.0149 92.1679 88.831 92.9888 89.1581C93.8643 89.6383 94.2306 88.4708 94.8344 88.3053C94.4184 89.7521 94.1087 91.2409 95.1395 92.6807C95.8515 93.5714 96.5463 94.2171 97.7902 94.5441C99.0761 94.7649 99.4253 93.7755 100.175 92.9545C101.001 93.7141 101.983 94.2363 103.21 93.8954L103.952 93.2475C104.992 95.5284 105.201 98.237 107.157 99.8777C108.132 100.573 108.95 101.929 110.357 101.422C111.183 101.759 112.017 100.725 112.49 100.023C112.94 100.686 113.605 101.673 112.926 102.469C112.724 102.38 112.67 101.054 112.049 101.398C111.747 102.714 111.865 104.188 112.56 105.257C111.964 105.672 111.709 104.848 111.16 105.167C112.534 107.228 111.826 110.408 114.568 111.463C114.815 112.46 116.329 112.419 116.981 112.748C118.641 112.474 119.874 110.946 120.047 109.333L119.999 109.334Z" fill="#6D762C"/>
<path d="M106.267 116.699L106.197 116.729L106.077 116.441L106.146 116.412L106.267 116.699Z" fill="#6D762C"/>
<path opacity="0.3" d="M116.428 111.764C116.069 111.912 116.403 112.115 116.534 112.229C116.254 112.179 116.296 111.65 116.428 111.764Z" fill="white"/>
<path opacity="0.3" d="M115.945 111.625C115.569 111.952 115.69 111.224 115.534 111.039C115.868 111.242 115.918 110.539 116.311 110.881C116.015 110.586 116.302 110.463 115.705 110.032C115.418 110.156 114.659 110.981 114.15 110.18C115.327 110.964 114.976 110.939 115.853 112.011L115.95 111.635L115.945 111.625Z" fill="white"/>
<path opacity="0.3" d="M118.787 110.102C118.574 109.595 119.277 110.068 118.926 109.62L118.745 110.209C118.71 110.142 119.138 110.127 118.787 110.102Z" fill="white"/>
<path d="M115.797 110.844C115.552 110.861 115.601 110.581 115.495 110.539L115.505 110.957L115.792 110.834L115.797 110.844Z" fill="#6D762C"/>
<path opacity="0.3" d="M118.583 107.379L117.989 108.386L118.132 108.312C118.375 108.901 117.885 108.935 118.414 109.4C118.578 108.99 118.521 107.822 118.583 107.379Z" fill="white"/>
<path opacity="0.3" d="M116.205 109.993L116.294 110.213L116.581 110.089L116.205 109.993Z" fill="white"/>
<path opacity="0.3" d="M117.838 109.056C117.934 108.68 117.442 108.123 116.995 108.051C116.488 108.264 115.661 109.124 115.384 108.046L115.597 108.553L115.384 108.469C115.851 109.377 114.657 108.77 114.387 108.716C114.976 108.897 114.283 109.688 114.862 109.451L114.828 109.384C114.926 109.599 115.491 108.934 115.703 109.441C114.91 108.157 116.292 109.622 116.267 108.353C116.302 108.843 116.93 108.326 116.856 108.957C117.249 108.875 116.807 107.616 117.527 108.334C116.962 108.999 118.043 108.962 117.504 109.699L117.823 109.051L117.838 109.056Z" fill="white"/>
<path opacity="0.3" d="M115.345 109.589C114.904 109.344 114.889 110.114 114.78 110.254C114.805 109.903 115.401 109.911 115.345 109.589Z" fill="white"/>
<path opacity="0.3" d="M116.423 109.313C116.274 109.377 116.178 109.33 115.958 109.419C116.131 109.426 116.274 109.377 116.423 109.313Z" fill="white"/>
<path opacity="0.3" d="M113.405 109.39L113.167 109.235L113.422 109.635C113.489 109.601 113.43 109.462 113.405 109.39Z" fill="white"/>
<path opacity="0.3" d="M114.152 109.151C113.717 109.339 113.695 108.661 113.539 108.899C113.489 109.178 114.056 109.527 114.152 109.151Z" fill="white"/>
<path opacity="0.3" d="M118.049 106.929C118.433 106.429 117.69 107.5 117.347 106.879C117.242 107.428 117.796 107.542 118.19 107.461L118.049 106.929Z" fill="white"/>
<path opacity="0.3" d="M117.027 107.104L116.782 107.121C116.913 107.235 117.078 107.416 117.222 107.366C117.188 107.299 117.166 107.045 117.027 107.104Z" fill="white"/>
<path opacity="0.3" d="M116.005 107.702C115.839 107.521 115.775 106.95 115.372 106.614C115.766 106.955 115.176 107.548 115.642 107.865L115.56 107.472L116 107.717L116.005 107.702Z" fill="white"/>
<path opacity="0.3" d="M114.551 107.882C113.92 107.808 114.477 106.893 113.75 107.195C113.497 107.808 112.703 107.721 112.763 108.283C113.644 107.153 113.482 109 114.546 107.873L114.551 107.882Z" fill="white"/>
<path d="M113.968 107.711C113.634 107.931 113.804 108.122 114.116 108.07C113.985 107.956 114.141 107.719 113.968 107.711Z" fill="#6D762C"/>
<path opacity="0.3" d="M115.991 106.852L116.355 107.136L116.159 106.874L115.991 106.852Z" fill="white"/>
<path opacity="0.3" d="M114.613 107.439L114.957 107.637L115.041 107.425L114.613 107.439Z" fill="white"/>
<path opacity="0.3" d="M116.847 106.073L117.012 106.253L117.02 106.08L116.847 106.073Z" fill="white"/>
<path opacity="0.3" d="M115.971 106.015C115.709 106.211 116.209 106.594 116.298 106.391L115.971 106.015Z" fill="white"/>
<path opacity="0.3" d="M117.745 105.188C117.5 105.205 117.272 105.467 117.035 105.311C117.29 105.712 117.569 105.762 117.745 105.188Z" fill="white"/>
<path opacity="0.3" d="M112.375 106.331C112.41 106.398 112.654 106.381 112.637 106.559C112.269 106.289 112.727 105.159 112.064 105.609C112.145 106.002 112.408 106.23 112.197 106.737L112.361 106.326L112.375 106.331Z" fill="white"/>
<path opacity="0.3" d="M113.856 106.05L113.786 106.079L113.666 105.792L113.735 105.763L113.856 106.05Z" fill="white"/>
<path d="M109.085 106.186L108.986 105.548C109.028 105.865 109.102 106.431 108.857 106.871C107.91 106.839 108.751 106.829 108.115 107.519C106.952 107.162 107.01 106.287 106.602 105.518C107.421 105.253 106.625 104.152 107.525 104.281C107.851 104.657 108.465 104.91 108.719 105.311C108.4 104.761 107.834 104.412 107.181 104.083C106.625 104.575 106.454 105.582 106.725 106.228C106.93 106.908 107.519 107.511 108.288 107.527C108.82 107.386 109.115 106.666 109.08 106.176L109.085 106.186Z" fill="#6D762C"/>
<path opacity="0.3" d="M114.456 104.62C114.375 104.227 114.414 104.726 114.367 104.823C114.434 104.788 114.481 104.692 114.456 104.62Z" fill="white"/>
<path d="M140.027 89.4823C141.212 88.0507 139.744 85.7844 139.361 84.241C138.338 82.2051 136.724 80.1712 134.548 79.0426C132.218 78.7425 129.884 76.837 127.242 77.0116C126.948 76.1113 126.144 76.0292 126.038 75.1412C125.336 75.0916 124.975 74.2257 124.435 74.9625C123.67 76.9758 126.596 76.8604 126.329 78.666C126.125 80.6199 125.424 82.7814 126.341 84.3523C127.306 84.6296 128.376 85.3719 129.106 86.0846C129.54 87.5168 130.317 88.9787 130.37 90.3048C131.042 91.8929 133.209 91.4065 134.243 92.2406C135.422 92.4193 136.313 91.7073 137.481 92.0736C138.527 91.1243 139.803 90.9269 140.037 89.4774L140.027 89.4823Z" fill="#6D762C"/>
<path d="M62.2408 121.414C61.922 120.442 61.1259 119.764 60.2752 119.355C59.6715 119.944 59.1072 120.609 59.468 121.475C59.9255 121.965 60.3035 122.653 61.0308 122.774C61.8 122.789 62.2726 122.087 62.2408 121.414Z" fill="#6D762C"/>
<path opacity="0.3" d="M61.5213 120.697L61.5137 120.87C61.1529 120.427 60.752 120.258 60.3022 120.018C59.8372 120.125 60.2622 121.139 59.6565 120.713C59.5178 121.196 60.5588 121.434 60.9101 121.881C61.1301 121.792 61.3281 121.449 61.531 121.538L61.578 121.864C62.1099 121.723 61.4965 121.048 61.5118 120.702L61.5213 120.697Z" fill="white"/>
<path opacity="0.3" d="M110.32 98.2021L110.755 98.4375L111.025 98.0691L110.32 98.2021Z" fill="white"/>
<path opacity="0.3" d="M111.291 95.2492C111.063 95.5114 111.301 95.6673 111.528 95.8281L111.291 95.2492Z" fill="white"/>
<path opacity="0.3" d="M108.266 96.3463C108.248 96.5244 107.61 96.2 107.793 96.6257L108.266 96.3463Z" fill="white"/>
<path opacity="0.3" d="M110.309 95.1499C110.25 95.0112 110.406 94.7739 110.643 94.9298C110.372 94.284 109.842 95.4389 109.679 94.6525C110.111 95.0705 110.498 93.9653 110.325 93.9577C109.793 94.0984 108.927 94.8822 108.959 93.9349C108.9 93.7962 109.599 94.8505 108.796 94.7684L108.707 94.5483C108.657 95.2507 109.003 94.8429 109.565 94.7836L109.337 95.0458C109.748 95.2093 109.933 95.0533 110.309 95.1499Z" fill="white"/>
<path opacity="0.3" d="M108.306 95.2259C108.044 95.4212 108.489 95.6516 108.692 95.7406L108.306 95.2259Z" fill="white"/>
<path opacity="0.3" d="M107.684 95.1466C107.447 94.9907 107.16 95.1141 107.081 95.3121C107.254 95.3198 107.8 95.6067 107.684 95.1466Z" fill="white"/>
<path opacity="0.3" d="M106.792 94.8443L106.784 95.0175L107.104 94.7927L106.792 94.8443Z" fill="white"/>
<path opacity="0.3" d="M109.27 93.4603L109.604 93.6632L109.523 93.27L109.27 93.4603Z" fill="white"/>
<path opacity="0.3" d="M107.792 93.9917C107.727 93.8434 107.589 93.9027 107.448 93.7937L108.054 94.2194C108.037 93.9744 107.98 93.653 107.792 93.9917Z" fill="white"/>
<path opacity="0.3" d="M110.428 93.2264L110.289 93.2845L110.169 92.9971L110.307 92.9389L110.428 93.2264Z" fill="white"/>
<path opacity="0.3" d="M107.109 93.1824L107.057 92.8706C106.736 92.9271 106.805 93.4839 106.429 93.3873C106.946 94.0159 106.699 93.0189 107.109 93.1824Z" fill="white"/>
<path opacity="0.3" d="M101.114 91.021L101.49 91.1176L101.335 90.9319L101.114 91.021Z" fill="white"/>
<path opacity="0.3" d="M96.9414 92.426L96.8721 92.4551L96.7224 92.0983L96.7918 92.0692L96.9414 92.426Z" fill="white"/>
<path opacity="0.3" d="M97.7015 90.5892L97.8174 91.0493L97.914 90.6733L97.7015 90.5892Z" fill="white"/>
<path d="M86.2161 94.9752C87.6367 93.1082 87.1205 90.4368 86.1221 88.4727C85.0168 87.2405 83.5432 86.1615 82.1536 85.293C81.058 84.9018 80.4295 85.8416 79.4229 85.6705C79.0642 86.2418 79.4174 87.2808 78.5813 87.7231C78.7214 89.8749 78.0378 92.7043 80.1813 94.3572C81.3701 96.5739 84.3878 96.4959 86.2112 94.9656L86.2161 94.9752Z" fill="#6D762C"/>
<path d="M40.9439 105.648C40.5341 103.864 40.0103 101.789 38.5118 100.638C37.4486 99.7228 35.7962 99.8235 34.5371 100.266C34.7765 101.436 33.4085 102.442 33.5761 103.637C33.6596 105.044 34.6758 106.056 35.6252 107.103C37.1312 107.658 39.2431 109.061 40.6312 107.295L40.9486 105.633L40.9439 105.648Z" fill="#6D762C"/>
<path opacity="0.3" d="M81.326 87.3502L81.373 87.6765L81.4399 87.6421L81.326 87.3502Z" fill="white"/>
<path opacity="0.3" d="M37.4512 104.991C37.147 104.869 36.6399 105.082 36.7786 104.6C36.729 105.302 36.9021 105.31 37.4512 104.991Z" fill="white"/>
</g>
</g>
<defs>
<clipPath id="clip0_135_2903">
<rect width="114.429" height="152.196" fill="white" transform="matrix(0.889226 -0.457469 -0.457469 -0.889226 69.625 187.922)"/>
</clipPath>
</defs>
</svg>
